<?xml version="1.0" encoding="utf-8"?>
<!-- Generator: Adobe Illustrator 25.4.1, SVG Export Plug-In . SVG Version: 6.00 Build 0)  -->
<svg version="1.1" id="Capa_1" xmlns="http://www.w3.org/2000/svg" xmlns:xlink="http://www.w3.org/1999/xlink" x="0px" y="0px"
	 viewBox="0 0 595.28 841.89" style="enable-background:new 0 0 595.28 841.89;" xml:space="preserve">
<g>
	<path d="M305.22,725.6c-8.8,7.07-24.96,7.08-31.64,0.87c-7.66-7.12-8.02-25.9-1.58-34.4c5.69-7.51,9.18-17.38,6.05-25.85
		c-5.05-13.65,1.4-26,1.38-38.96c-0.01-7.48,9.81-7.43,16.11-11.07c-3.91-3.88-8.66-1.02-12.66-4.85
		c-7.57-7.25-10.57-11.74-1.62-19.93c5.08-4.66-2.32-20.15-9.41-20.82c-5.82-0.56-6.71,2.76-5.76,7.78
		c2.6,13.84,0.96,16.32-11.79,19.05c-4.66,1-7.58,11.25-3.98,17.15c4.81,7.88,9.79,14.65-3.56,19.36c-3.71,1.31,0.77,4.8,1.07,7.35
		c0.28,2.31,4.09,4.56,1.08,6.66c-1.25,0.88-4.38-0.94-7.51-1.75c1.34,4.1,1.4,9.11,3.78,10.73c10.56,7.22,3.98,17.21,4.63,25.73
		c0.57,7.43-7.77,4.67-11.82,6.89c3.52,10.94-1.94,17.33-13.75,16.53c-2.2-0.15-4.43,0.11-6.64,0c-13.38-0.67-19.26-9.4-13.93-21.54
		c6.09-13.88,8.99-27.48,4.82-42.89c-1.81-6.71-2.01-15.63,3.69-22.23c4.37-5.06,1.75-10.74,1.32-16.02
		c-0.55-6.87-0.16-11.65,8.66-11.48c6.79,0.13,7.11-2.56,4.58-9.14c-8.52-22.21-13.45-44.91-4.24-68.56
		c4.73-12.15,0.19-25.5,3.58-38.14c1.06-3.96,0.72-7.96,4.73-10.29c5.87-3.41,7.03-9.73,10.21-14.95
		c13.25-21.69,3.82-41.31-3.28-61.46c-4.88-13.85-10.45-27.4-4.88-42.85c3.21-8.91-0.59-17.58-6.54-24.76
		c-4.65-5.61-6.65-11.43-3.53-18.41c2.49-5.57,0.96-10.81-1.22-16.09c-1.64-3.97-1.66-8.04,1.23-11.56c3.54-4.32,6.4-0.54,9.64,0.81
		c7.02,2.93,13.47-0.89,14.21-8.72c0.45-4.74,0.32-9.71-0.6-14.37c-1.62-8.23,1.03-14.86,7.05-19.84
		c8.44-6.97,11.9-15.67,11.58-26.34c-0.18-6.01-0.1-12.29,6.18-15.54c6.6-3.42,9.57,3.44,14.31,5.45
		c7.14,3.03,12.89,9.62,23.16,5.58c4.88-1.92,13.18,4.21,19.67,7.23c5.34,2.49,10.63,5.35,15.36,8.83c4.13,3.04,7.7,3.66,12.17,1.19
		c3.43-1.89,7.5-5.19,10.9-0.8c3.67,4.74,7.4,12.35,3.47,16.31c-9.77,9.84-2.85,21.71-6.25,31.66c-4.56,13.35,4.86,26.72-1.84,39.8
		c-1.37,2.68-0.42,7.87,1.4,10.63c7.42,11.29,8.4,24.29,10.89,36.89c1.4,7.12,10.5,11.57,5.84,21.18c-2.19,4.52-3.66,7.39-8.67,8.25
		c-4.71,0.8-9.26,2.18-13.53,4.71c-6.13,3.63-9.53,8.05-7.17,15.46c4.13,12.96,1.35,29.37-5.43,35.8
		c-9.44,8.96-6.06,15.77-5.82,24.38c0.09,3.18-0.58,7.65-2.68,9.4c-6.54,5.43-6.79,10.12-0.7,15.81c1.74,1.63,1.68,4.04-0.14,5.98
		c-10.21,10.89-12.18,23.47-7.45,37.31c2.19,6.42,2.62,12.74,1.53,19.52c-2.82,17.58,1.71,34.72,5.84,51.39
		c2.86,11.54-3.82,14.45-10.59,14.3c-9.94-0.22-9.15,5.07-6.38,9.87c4.97,8.6,2.64,15.87-0.45,24.13
		c-3.26,8.69-2.62,16.7,6.13,23.49c8,6.21,18.3,13,7.96,26.07c-2.91,3.68,1.13,7.12,4.93,9.55c5.79,3.69,9.86,8.26,3.92,15.29
		c-3.95,4.68,0.03,10.06-1.01,15.05c-0.53,2.54-0.44,5.4-3.08,6.76c-3.09,1.59-4.78-0.84-6.32-2.9c-1.93-2.58-4.68-3.21-7.57-4.1
		C315.39,738.74,308.61,734.65,305.22,725.6z M334.63,742.3c3.32-5.01-0.89-9.76,1.07-12.84c5.52-8.66,1.61-12.95-5.42-17.8
		c-4.14-2.85-5.32-9.22-1.79-13.01c8.01-8.61,2.07-12.87-4.08-17.6c-12.27-9.44-15.11-19.45-8.8-33.69
		c2.56-5.76,3.19-10.01-0.5-16.15c-6.68-11.14-3.8-15.46,9.42-17.51c5.81-0.9,8.07-3.47,7.01-9.83
		c-2.29-13.75-6.43-27.14-6.17-41.43c0.19-10.14,2.53-20.57-1.52-30.62c-4.94-12.26-1.51-24.25,4.11-34.79
		c2.59-4.85,2.9-7.08,0.34-11.24c-2.25-3.67-5.4-9.09-0.45-11.88c9.8-5.52,7.78-12.6,5.22-20.81c-1.68-5.38-4.51-11.56,2.98-15.5
		c10.34-5.44,12.28-15.24,11.36-25.31c-2.04-22.32-0.08-26.29,21.75-32.1c6.55-1.74,8.51-6.71,6.72-10.42
		c-6.64-13.81-7.23-29.44-13.65-43.05c-4.04-8.57-5.45-16.72-3.22-25.7c0.91-3.66,1.41-7.47,0.06-10.96
		c-4.22-10.85-0.03-21.74,0.52-32.4c0.41-7.99-4.54-18.55,6.12-24.97c2.09-1.26,0.27-6.52-2.13-8.99c-2.8-2.86-5.85-0.61-7.85,1.24
		c-5.38,4.95-9,2.83-14.25-1c-10.06-7.31-21.09-16.31-33.53-14.99c-10.95,1.16-18.42-0.17-25.2-8.41c-2.47-3-5.57-6.99-10.19-4.86
		c-4.54,2.1-3.3,7.01-3.27,10.94c0.08,11.63-2.77,21.91-12.13,29.71c-5.25,4.37-6.85,10.2-5.98,16.99c0.56,4.39,0.6,8.88,0.41,13.31
		c-0.49,10.89-8.91,17.92-19.4,15.08c-8.3-2.25-7.35,1.49-5.53,6.51c1.67,4.6,3.64,9.33,1.45,13.98
		c-3.54,7.51-0.98,13.42,3.34,19.51c5.27,7.44,9.67,16.06,6.13,24.94c-6.3,15.83-0.92,30,5.28,43.52
		c11.39,24.86,14.56,49.76-2.91,71.93c-9.88,12.53-11.79,24.8-10.8,39.09c0.33,4.8,0.4,9.43-1.35,14.19
		c-5.79,15.78-6.51,31.23-2.69,48.31c2.23,10.01,17.97,12.4,11.67,25.03c-0.02,0.04,0.55,0.43,0.88,0.57
		c6.71,2.83,12.58,0.66,18.95-2c5.07-2.12,5.79-5.01,5.13-9.4c-0.72-4.81,0.11-9.18,4.86-11.28c5.11-2.26,9.44,0.38,12.94,3.91
		c2.31,2.33,3.89,5.38,5.89,8.04c5.21,6.91,9.04,6.56,12.69-1.25c1.09-2.33,1.6-4.93,2.56-7.33c0.8-2,1.47-4.68,4.25-4.36
		c3.32,0.38,3.48,3.47,3.74,5.97c1.02,9.89-5.8,18.53-15.7,19.65c-5.92,0.67-10.48,4.06-10.77,9.31c-0.31,5.58,5.2,2.92,8.55,3.27
		c6.03,0.63,8.92,4.63,9.65,10.37c0.74,5.86,1.43,11.72,2.01,17.59c0.25,2.49,1.17,5.94-1.76,6.88c-4.12,1.34-4.23-2.96-5.47-5.39
		c-0.67-1.31-1.03-2.78-1.63-4.13c-1.25-2.85-2.81-5.7-6.56-3.99c-4.35,1.98-1.69,4.68-0.43,7.3c1.66,3.47,4.29,5.94,7.3,8.18
		c1.85,1.38,3.33,3.26,1.8,5.63c-1.19,1.84-3.48,1.74-5.03,0.88c-9.72-5.38-8.18,2.08-9.13,7.51c-0.74,4.22,0.89,7.15,3.35,10.06
		c4.53,5.35,3.93,13.1,0.34,16.18c-6.16,5.29-4.99,14-11.97,18.95c-3.81,2.7-2.42,10.5,2.41,14.81c2.47,2.2,6.32,3.43,7.78,6.07
		c5.17,9.37,11.37,7.66,17.92,2.33c4.94-4.02,8.07-3.01,9.71,2.78c1.9,6.71,7.05,9.4,13.04,10.46
		C328.27,737.01,331.83,738.25,334.63,742.3z M249.14,627.33c-5.21-7.47-3.87-16.91-8.04-24.77c-1.18-2.23-2.12-6.58-4.28-4.53
		c-4.8,4.56-8.45,9.65-15.79,4.71c-0.14-0.09-2.07,1.52-1.99,2.22c1.33,12.13-8.45,21.93-7,34.09c0.69,5.77,3.27,10.95,2.82,17.26
		c-0.78,10.93-3.51,20.9-8.23,30.66c-3.82,7.9-0.14,12.95,7.77,14.78c8.51,1.96,16.25-3.8,17.78-12.74
		c0.49-2.88,1.76-5.27,4.74-5.21c9.93,0.19,4.53-3.95,2.47-7.63c-1.74-3.11-7.15-6.85-1.39-10c4.73-2.59,2.64-3.41,0.47-5.87
		C226.84,647.13,231.55,632.14,249.14,627.33z"/>
</g>
</svg>
