<?xml version="1.0" encoding="utf-8"?>
<!-- Generator: Adobe Illustrator 25.4.1, SVG Export Plug-In . SVG Version: 6.00 Build 0)  -->
<svg version="1.1" id="Capa_1" xmlns="http://www.w3.org/2000/svg" xmlns:xlink="http://www.w3.org/1999/xlink" x="0px" y="0px"
	 viewBox="0 0 595.3 841.9" style="enable-background:new 0 0 595.3 841.9;" xml:space="preserve">
<style type="text/css">
	.st0{fill:#663F3F;}
</style>
<g>
	<path class="st0" d="M348.5,794.7c-12.7,10.2-36,10.2-45.6,1.3c-11-10.3-11.6-37.3-2.3-49.6c8.2-10.8,13.2-25,8.7-37.3
		c-7.3-19.7,2-37.5,2-56.1c0-10.8,14.1-10.7,23.2-16c-5.6-5.6-12.5-1.5-18.2-7c-10.9-10.4-15.2-16.9-2.3-28.7
		c7.3-6.7-3.3-29-13.6-30c-8.4-0.8-9.7,4-8.3,11.2c3.7,19.9,1.4,23.5-17,27.5c-6.7,1.4-10.9,16.2-5.7,24.7
		c6.9,11.4,14.1,21.1-5.1,27.9c-5.3,1.9,1.1,6.9,1.5,10.6c0.4,3.3,5.9,6.6,1.6,9.6c-1.8,1.3-6.3-1.4-10.8-2.5
		c1.9,5.9,2,13.1,5.4,15.5c15.2,10.4,5.7,24.8,6.7,37.1c0.8,10.7-11.2,6.7-17,9.9c5.1,15.8-2.8,25-19.8,23.8c-3.2-0.2-6.4,0.2-9.6,0
		c-19.3-1-27.8-13.5-20.1-31c8.8-20,13-39.6,6.9-61.8c-2.6-9.7-2.9-22.5,5.3-32c6.3-7.3,2.5-15.5,1.9-23.1
		c-0.8-9.9-0.2-16.8,12.5-16.5c9.8,0.2,10.2-3.7,6.6-13.2c-12.3-32-19.4-64.7-6.1-98.8c6.8-17.5,0.3-36.7,5.2-55
		c1.5-5.7,1-11.5,6.8-14.8c8.5-4.9,10.1-14,14.7-21.5c19.1-31.3,5.5-59.5-4.7-88.6c-7-20-15.1-39.5-7-61.7
		c4.6-12.8-0.9-25.3-9.4-35.7c-6.7-8.1-9.6-16.5-5.1-26.5c3.6-8,1.4-15.6-1.8-23.2c-2.4-5.7-2.4-11.6,1.8-16.7
		c5.1-6.2,9.2-0.8,13.9,1.2c10.1,4.2,19.4-1.3,20.5-12.6c0.6-6.8,0.5-14-0.9-20.7c-2.3-11.9,1.5-21.4,10.2-28.6
		c12.2-10,17.1-22.6,16.7-38c-0.3-8.7-0.1-17.7,8.9-22.4c9.5-4.9,13.8,5,20.6,7.9c10.3,4.4,18.6,13.9,33.4,8c7-2.8,19,6.1,28.3,10.4
		c7.7,3.6,15.3,7.7,22.1,12.7c6,4.4,11.1,5.3,17.5,1.7c4.9-2.7,10.8-7.5,15.7-1.2c5.3,6.8,10.7,17.8,5,23.5
		c-14.1,14.2-4.1,31.3-9,45.6c-6.6,19.2,7,38.5-2.7,57.4c-2,3.9-0.6,11.3,2,15.3c10.7,16.3,12.1,35,15.7,53.2
		c2,10.3,15.1,16.7,8.4,30.5c-3.2,6.5-5.3,10.6-12.5,11.9c-6.8,1.2-13.3,3.1-19.5,6.8c-8.8,5.2-13.7,11.6-10.3,22.3
		c6,18.7,1.9,42.3-7.8,51.6c-13.6,12.9-8.7,22.7-8.4,35.1c0.1,4.6-0.8,11-3.9,13.5c-9.4,7.8-9.8,14.6-1,22.8
		c2.5,2.3,2.4,5.8-0.2,8.6c-14.7,15.7-17.6,33.8-10.7,53.8c3.2,9.3,3.8,18.4,2.2,28.1c-4.1,25.3,2.5,50,8.4,74.1
		c4.1,16.6-5.5,20.8-15.3,20.6c-14.3-0.3-13.2,7.3-9.2,14.2c7.2,12.4,3.8,22.9-0.6,34.8c-4.7,12.5-3.8,24.1,8.8,33.9
		c11.5,8.9,26.4,18.7,11.5,37.6c-4.2,5.3,1.6,10.3,7.1,13.8c8.3,5.3,14.2,11.9,5.6,22c-5.7,6.7,0,14.5-1.5,21.7
		c-0.8,3.7-0.6,7.8-4.4,9.7c-4.5,2.3-6.9-1.2-9.1-4.2c-2.8-3.7-6.7-4.6-10.9-5.9C363.1,813.7,353.4,807.8,348.5,794.7z M390.9,818.8
		c4.8-7.2-1.3-14.1,1.5-18.5c8-12.5,2.3-18.7-7.8-25.7c-6-4.1-7.7-13.3-2.6-18.7c11.5-12.4,3-18.5-5.9-25.4
		c-17.7-13.6-21.8-28-12.7-48.5c3.7-8.3,4.6-14.4-0.7-23.3c-9.6-16.1-5.5-22.3,13.6-25.2c8.4-1.3,11.6-5,10.1-14.2
		c-3.3-19.8-9.3-39.1-8.9-59.7c0.3-14.6,3.6-29.6-2.2-44.1c-7.1-17.7-2.2-34.9,5.9-50.1c3.7-7,4.2-10.2,0.5-16.2
		c-3.2-5.3-7.8-13.1-0.6-17.1c14.1-8,11.2-18.2,7.5-30c-2.4-7.8-6.5-16.7,4.3-22.3c14.9-7.8,17.7-22,16.4-36.5
		c-2.9-32.2-0.1-37.9,31.3-46.3c9.4-2.5,12.3-9.7,9.7-15c-9.6-19.9-10.4-42.4-19.7-62c-5.8-12.3-7.9-24.1-4.6-37
		c1.3-5.3,2-10.8,0.1-15.8c-6.1-15.6,0-31.3,0.7-46.7c0.6-11.5-6.5-26.7,8.8-36c3-1.8,0.4-9.4-3.1-13c-4-4.1-8.4-0.9-11.3,1.8
		c-7.8,7.1-13,4.1-20.5-1.4c-14.5-10.5-30.4-23.5-48.3-21.6c-15.8,1.7-26.5-0.2-36.3-12.1c-3.6-4.3-8-10.1-14.7-7
		c-6.5,3-4.8,10.1-4.7,15.8c0.1,16.8-4,31.6-17.5,42.8c-7.6,6.3-9.9,14.7-8.6,24.5c0.8,6.3,0.9,12.8,0.6,19.2
		c-0.7,15.7-12.8,25.8-28,21.7c-12-3.2-10.6,2.1-8,9.4c2.4,6.6,5.2,13.4,2.1,20.1c-5.1,10.8-1.4,19.3,4.8,28.1
		c7.6,10.7,13.9,23.1,8.8,35.9c-9.1,22.8-1.3,43.2,7.6,62.7c16.4,35.8,21,71.7-4.2,103.7c-14.2,18.1-17,35.7-15.6,56.3
		c0.5,6.9,0.6,13.6-1.9,20.4c-8.3,22.7-9.4,45-3.9,69.6c3.2,14.4,25.9,17.9,16.8,36.1c0,0.1,0.8,0.6,1.3,0.8
		c9.7,4.1,18.1,1,27.3-2.9c7.3-3.1,8.3-7.2,7.4-13.5c-1-6.9,0.2-13.2,7-16.3c7.4-3.3,13.6,0.5,18.6,5.6c3.3,3.4,5.6,7.8,8.5,11.6
		c7.5,10,13,9.5,18.3-1.8c1.6-3.4,2.3-7.1,3.7-10.6c1.2-2.9,2.1-6.7,6.1-6.3c4.8,0.5,5,5,5.4,8.6c1.5,14.3-8.4,26.7-22.6,28.3
		c-8.5,1-15.1,5.9-15.5,13.4c-0.4,8,7.5,4.2,12.3,4.7c8.7,0.9,12.9,6.7,13.9,14.9c1.1,8.4,2.1,16.9,2.9,25.3
		c0.4,3.6,1.7,8.6-2.5,9.9c-5.9,1.9-6.1-4.3-7.9-7.8c-1-1.9-1.5-4-2.3-6c-1.8-4.1-4-8.2-9.5-5.7c-6.3,2.9-2.4,6.7-0.6,10.5
		c2.4,5,6.2,8.6,10.5,11.8c2.7,2,4.8,4.7,2.6,8.1c-1.7,2.7-5,2.5-7.2,1.3c-14-7.8-11.8,3-13.2,10.8c-1.1,6.1,1.3,10.3,4.8,14.5
		c6.5,7.7,5.7,18.9,0.5,23.3c-8.9,7.6-7.2,20.2-17.2,27.3c-5.5,3.9-3.5,15.1,3.5,21.3c3.6,3.2,9.1,4.9,11.2,8.7
		c7.5,13.5,16.4,11,25.8,3.4c7.1-5.8,11.6-4.3,14,4c2.7,9.7,10.2,13.5,18.8,15.1C381.7,811.2,386.8,813,390.9,818.8z M267.7,653.1
		c-7.5-10.8-5.6-24.4-11.6-35.7c-1.7-3.2-3.1-9.5-6.2-6.5c-6.9,6.6-12.2,13.9-22.8,6.8c-0.2-0.1-3,2.2-2.9,3.2
		c1.9,17.5-12.2,31.6-10.1,49.1c1,8.3,4.7,15.8,4.1,24.9c-1.1,15.8-5.1,30.1-11.9,44.2c-5.5,11.4-0.2,18.7,11.2,21.3
		c12.3,2.8,23.4-5.5,25.6-18.4c0.7-4.2,2.5-7.6,6.8-7.5c14.3,0.3,6.5-5.7,3.6-11c-2.5-4.5-10.3-9.9-2-14.4c6.8-3.7,3.8-4.9,0.7-8.5
		C235.5,681.7,242.3,660.1,267.7,653.1z"/>
</g>
</svg>
