<?xml version="1.0" encoding="utf-8"?>
<!-- Generator: Adobe Illustrator 25.4.1, SVG Export Plug-In . SVG Version: 6.00 Build 0)  -->
<svg version="1.1" id="Capa_1" xmlns="http://www.w3.org/2000/svg" xmlns:xlink="http://www.w3.org/1999/xlink" x="0px" y="0px"
	 viewBox="0 0 1366 768" style="enable-background:new 0 0 1366 768;" xml:space="preserve">
<style type="text/css">
	.st0{fill:#FFFFFF;}
</style>
<g>
	<g>
		<path class="st0" d="M1016.35,705c-289.43,0-578.88,0-868.35,0c0-223.65,0-447.3,0-671c289.41,0,578.84,0,868.35,0
			C1016.35,257.64,1016.35,481.32,1016.35,705z M624.58,533.43c1.02,0,1.7,0.02,2.37,0c4.78-0.14,9.55-0.26,14.33-0.44
			c6.16-0.24,12.28-1.39,18.47-0.66c0.68,0.08,1.4,0.01,2.09-0.07c4.91-0.51,8.78-4.33,9.22-9.1c0.48-5.11-2.46-9.39-7.51-10.73
			c-1.32-0.35-2.75-0.41-4.13-0.43c-7.84-0.15-15.45,1.4-22.97,3.35c-6.04,1.57-12,3.45-17.99,5.22c-0.46,0.14-0.87,0.47-1.27,0.76
			c-0.96,0.69-1.88,1.44-2.86,2.11c-1.81,1.25-2.36,2.56-1.43,4.59c0.58,1.27,0.64,2.42,0.47,3.74c-0.21,1.57-0.31,3.18-0.28,4.76
			c0.08,4.78,0.22,9.55,0.41,14.33c0.06,1.52-0.07,2.81-1.12,4.13c-1.71,2.16-1.61,4.66,0.22,6.87c1.1,1.34,1.48,2.7,1.56,4.34
			c0.64,13.72,1.29,27.45,2.02,41.17c0.23,4.27,0.49,8.56,1.12,12.78c0.79,5.26,5.21,8.68,10.18,7.88c2.44-0.4,4.7-0.22,7.04,0.31
			c1.45,0.33,2.95,0.48,4.43,0.67c16.38,2.12,32.81,1.09,49.23,0.66c5.56-0.14,10.06-5.52,9.51-10.95
			c-0.14-1.36-0.67-2.69-1.05-4.03c-2.37-8.33-11.65-9.81-16.75-5.75c-0.72,0.57-1.76,0.95-2.69,1.03
			c-3.97,0.32-7.95,0.52-11.93,0.7c-7.86,0.36-15.72,0.69-23.58,0.99c-2.16,0.08-4.32,0.01-6.62,0.01
			c-1.78-14.93-3.54-29.71-5.31-44.6c0.55-0.13,0.93-0.28,1.3-0.29c10.36-0.19,20.71-0.4,31.07-0.51c1.35-0.01,2.7,0.56,4.07,0.72
			c2.25,0.25,4.57,0.77,6.77,0.48c5.26-0.69,8.76-6.04,7.68-11.23c-0.93-4.49-4.37-7.6-9.4-8.32c-2.36-0.33-4.75-0.55-7.14-0.58
			c-9.38-0.15-18.69,0.82-27.96,2.15c-2.83,0.4-5.66,0.83-8.8,1.3C626.42,545.03,625.54,539.46,624.58,533.43z M459.83,548.78
			c0.15,1.03,0.24,1.42,0.25,1.81c0.63,15.11,1.23,30.23,1.87,45.34c0.33,7.76,0.59,15.52,1.14,23.26c0.29,4.05,0.96,8.11,1.8,12.09
			c1.03,4.89,4.96,8.22,9.53,8.55c6.95,0.49,12.49-5.3,11.51-12.36c-0.67-4.82-2.05-9.54-2.73-14.35
			c-1.37-9.65-2.55-19.33-3.67-29.01c-2.44-21.15-5.51-42.2-8.98-63.2c-0.58-3.53-1.39-7.02-2.13-10.52
			c-0.37-1.76-1.53-2.85-3.29-2.97c-1.8-0.12-3.07,0.94-3.62,2.58c-0.63,1.87-1.28,3.81-1.44,5.76c-0.37,4.55-0.46,9.13-0.65,13.7
			c-0.05,1.05-0.09,2.1-0.12,2.99c-13.23,1.83-26.1,3.62-38.99,5.41c-0.16-0.36-0.35-0.61-0.38-0.89c-0.93-6.8-1.9-13.59-2.7-20.41
			c-0.17-1.44-0.52-2.52-1.86-3.08c-1.31-0.55-2.68-0.33-3.61,0.64c-0.93,0.98-1.89,2.17-2.22,3.43c-0.68,2.57-1.28,5.25-1.32,7.9
			c-0.07,4.97,0.33,9.94,0.42,14.92c0.02,1.25-0.2,2.57-0.63,3.74c-0.59,1.62-0.49,3.05,0.17,4.61c0.49,1.15,0.88,2.43,0.94,3.67
			c0.52,11.33,0.86,22.68,1.44,34.01c0.44,8.64,0.97,17.29,1.81,25.91c0.37,3.82,1.25,7.68,2.5,11.31
			c1.57,4.58,6.52,6.66,10.99,5.17c4.44-1.48,7.14-6.17,5.71-10.74c-1.89-6.04-2.42-12.28-3.24-18.49
			c-1.8-13.51-3.53-27.02-5.27-40.54c-0.33-2.52-0.61-5.04-0.96-7.91C434.89,550.32,447.26,549.55,459.83,548.78z M524.52,266.43
			c-0.3-1.33-0.53-2.39-0.77-3.45c-0.32-1.45-0.96-2.66-2.61-2.87c-1.35-0.17-2.4,0.85-3,2.79c-0.09,0.28-0.11,0.59-0.2,0.87
			c-2.41,7.56-3.01,15.4-3.48,23.25c-1.06,18.01-0.51,36.03,0.08,54.04c0.08,2.48,0.3,4.97,0.59,7.44c0.55,4.71,3.4,7.56,8.02,8.29
			c1.67,0.26,3.29,0.81,4.97,1c6.72,0.76,13.44,1.61,20.18,2.1c9.04,0.65,18.11,1.01,27.16,0.22c1.96-0.17,3.94-0.62,5.81-1.25
			c2.28-0.77,3.8-2.5,4.66-4.75c1.23-3.21,0.41-6.7-2.09-9.03c-2.9-2.71-6.89-3.44-10.24-2.06c-1.72,0.71-3.54,1.47-5.35,1.59
			c-10.93,0.7-21.87,1.22-32.81,1.78c-0.67,0.03-1.35-0.09-1.83-0.12c-2.52-13.8-4.51-27.47-5-41.04c5.29,0,10.17-0.06,15.04,0.01
			c6.67,0.1,13.34,0.24,20.01,0.47c2.07,0.07,4.12,0.55,6.18,0.8c0.98,0.12,1.99,0.28,2.95,0.15c3.68-0.53,6.39-3.44,6.67-7
			c0.3-3.93-2.09-7.46-6.03-8.53c-1.71-0.47-3.54-0.69-5.31-0.69c-12.56-0.02-25.06,0.93-37.51,2.64c-0.96,0.13-1.93,0.19-3.27,0.33
			c-0.41-5.8-1.09-11.35-1.12-16.83c0.44-0.17,0.53-0.24,0.61-0.23c11.03,0.46,22.07,0.92,33.1,1.4c3.78,0.17,7.03-2.24,7.62-5.73
			c0.66-3.85-1.43-7.1-5.31-8.12c-1.04-0.27-2.17-0.43-3.24-0.36c-7.95,0.47-15.89,0.94-23.83,1.55
			C531.73,265.33,528.31,265.93,524.52,266.43z M403.01,327.73c0.27,0.96,0.57,1.79,0.74,2.65c0.66,3.32,1.25,6.65,1.92,9.97
			c1.56,7.81,3.43,15.55,6.19,23.04c1.85,5.01,6.51,7.4,11.17,5.87c4.73-1.55,7.23-6.24,5.54-11.28
			c-3.55-10.6-5.69-21.54-8.19-32.39c-0.37-1.62-0.26-3.34-0.5-5c-0.19-1.25-0.48-2.51-0.91-3.7c-0.59-1.66-1.49-3.22-2.01-4.9
			c-3.23-10.35-6.15-20.8-9.67-31.04c-1.8-5.23-4.53-10.16-7.07-15.1c-0.98-1.91-2.5-3.6-3.98-5.19c-1.59-1.69-3.62-2.46-5.97-1.63
			c-2.38,0.84-3.71,2.57-4.15,5.03c-0.16,0.87-0.22,1.8-0.59,2.58c-3.61,7.71-5.61,15.93-7.98,24.05
			c-3.36,11.53-5.39,23.42-9.41,34.77c-0.13,0.36-0.05,0.78-0.09,1.17c-0.14,1.17-0.21,2.36-0.45,3.52
			c-0.93,4.48-2.01,8.93-2.85,13.43c-0.62,3.32-1.25,6.68-1.37,10.04c-0.2,5.34,4.72,9.07,9.64,7.53c3.45-1.08,4.95-3.71,5.5-7.12
			c1-6.19,2.07-12.36,3.16-18.54c0.46-2.61,1.04-5.21,1.56-7.75C390,327.73,396.45,327.73,403.01,327.73z M367.72,615.67
			c-0.25,0-0.5-0.01-0.76-0.01c-0.89-2.71-2.1-5.36-2.62-8.14c-1.37-7.32-2.65-14.67-3.6-22.06c-1.15-8.98-2.14-17.98-2.8-27.01
			c-0.69-9.32-0.99-18.68-1.28-28.02c-0.09-2.73,0.12-5.54,1.4-8.51c2.25,0.18,4.56,0.1,6.74,0.59c3.19,0.71,6.29,1.85,9.44,2.75
			c1.62,0.46,3.26,0.88,4.92,1.16c1.68,0.28,3.2-0.15,4.11-1.75c0.94-1.66,0.78-3.39-0.43-4.73c-1.17-1.31-2.57-2.55-4.1-3.39
			c-6.01-3.29-12.4-5.33-19.33-5.47c-6.91-0.14-11.74,3.32-13.01,10.17c-0.94,5.06-1.32,10.25-1.6,15.4
			c-0.86,16.43-0.19,32.83,1.15,49.21c0.69,8.43,1.87,16.8,4.11,24.99c1.66,6.08,3.83,11.95,7.49,17.14
			c4.66,6.63,11.73,7.66,18.13,2.77c3.53-2.7,6.21-6.13,8.69-9.77c6.14-9.04,11.16-18.8,17.94-27.46
			c4.27-5.45,1.02-13.18-5.59-15.35c-5.93-1.94-13.81,3.79-14.43,9.66c-0.16,1.53-0.67,3.12-1.4,4.47
			c-3.89,7.17-7.9,14.27-11.88,21.39C368.64,614.38,368.16,615.01,367.72,615.67z M629.16,359.9c-3.93,1.71-6.03,1.45-8.98-1.78
			c-6.94-7.62-11.86-16.42-14.66-26.37c-0.36-1.29-0.33-2.47,0.26-3.75c1.13-2.42,0.64-4.7-1.19-6.6c-1.85-1.92-4.15-2.27-6.61-1.41
			c-3.99,1.4-6.1,4.34-6.52,8.46c-0.41,4.03,0.3,7.94,1.61,11.74c2.84,8.26,6.98,15.83,12.19,22.82c2.4,3.21,5.28,5.93,8.58,8.24
			c7.11,4.99,18.96,4.43,25.71-0.42c2.82-2.03,4.54-4.66,5.13-8.08c0.79-4.59,0.43-9.14-0.41-13.66c-1.21-6.51-3.6-12.63-6.44-18.57
			c-4.3-8.98-8.77-17.87-13.09-26.83c-2.47-5.12-4.38-10.46-5.52-16.05c-0.89-4.35-1.03-8.69,0.24-13c0.66-2.23,2-3.6,4.5-3.6
			c1.09,0,2.17-0.27,3.27-0.34c3.78-0.22,7.54-0.42,11.11,1.28c1.39,0.66,2.54-0.13,2.72-1.69c0.18-1.54-0.58-2.69-1.67-3.64
			c-2.22-1.95-4.82-3.2-7.69-3.77c-2.83-0.56-5.72-0.82-8.54-1.41c-4.83-1.01-8.68,0.88-11.76,4.25c-1.69,1.86-3.01,4.24-3.93,6.6
			c-1.86,4.79-2.36,9.84-1.92,14.97c0.6,7.1,2.23,13.97,4.9,20.54c3.18,7.84,6.65,15.55,9.97,23.33c2.23,5.21,4.56,10.39,6.57,15.68
			C628.57,350.97,629.39,355.28,629.16,359.9z M565.33,609.39c-0.29-1.53-0.63-2.77-0.74-4.03c-0.86-10.21-1.71-20.42-2.5-30.63
			c-0.49-6.45-0.72-12.92-1.33-19.35c-1.08-11.59-2.35-23.16-3.57-34.73c-0.25-2.37-0.52-4.75-0.97-7.09
			c-0.37-1.93-1.59-2.83-3.3-2.82c-1.7,0.01-2.81,0.94-3.29,2.86c-0.22,0.86-0.34,1.76-0.44,2.65c-0.35,2.86-0.71,5.73-0.99,8.6
			c-0.93,9.5-2.03,18.99-2.69,28.51c-0.59,8.43-0.75,16.9-0.96,25.35c-0.28,11.45-0.15,22.88,1.49,34.26
			c0.45,3.13,1.48,6.16,1.21,9.42c-0.14,1.7,1.14,2.91,2.61,3.71c2.13,1.16,4.37,2.04,6.83,1.82c5.05-0.45,10.09-0.99,15.13-1.53
			c8.01-0.86,16.01-1.75,24.02-2.64c0.79-0.09,1.59-0.14,2.35-0.36c4.87-1.41,7.72-5.87,7.07-11.02c-0.59-4.66-4.48-8.22-9.39-8.4
			c-5.3-0.2-10.54,0.39-15.69,1.64C575.37,606.77,570.58,608.04,565.33,609.39z M468.83,315.98c-0.8-1.44-1.3-2.25-1.72-3.09
			c-5.8-11.67-11.59-23.35-17.4-35.02c-1.55-3.12-3.13-6.22-4.77-9.3c-1.21-2.28-2.73-3.09-4.48-2.54
			c-1.89,0.59-2.74,2.23-2.41,4.85c0.2,1.58,0.39,3.18,0.84,4.7c2.31,7.82,4.27,15.77,7.16,23.37
			c7.24,19.06,14.91,37.96,22.44,56.91c0.66,1.65,1.51,3.27,2.5,4.75c2.5,3.74,7.26,4.77,11.07,2.55c3.18-1.85,4.63-5.43,3.88-9.25
			c-0.22-1.12-0.59-2.57-0.09-3.39c2.13-3.55,1.93-7.46,2.11-11.3c0.05-1.14-0.48-2.31-0.8-3.45c-0.42-1.51-1.17-2.98-1.32-4.52
			c-1.12-11.99-2.07-23.99-3.18-35.98c-1.1-11.99-2.29-23.96-3.51-35.94c-0.28-2.81-1.33-4.02-3.07-4.07
			c-1.79-0.05-2.96,1.18-3.28,3.9c-0.93,8-2.03,16-2.55,24.04c-0.65,10.03-0.8,20.09-1.17,30.13
			C469.08,313.99,468.97,314.63,468.83,315.98z M504.29,562.39c0.96,14.27,2.01,30.06,3.11,45.84c0.24,3.47,0.44,6.97,1.02,10.39
			c0.84,4.94,5.54,8.37,10.41,7.95c5.01-0.43,9.23-4.4,9.15-9.36c-0.08-5.61,0.57-11.39-2.13-16.7c-0.26-0.5-0.22-1.17-0.29-1.76
			c-0.63-5.24-1.27-10.47-1.88-15.71c-1.54-13.14-3.11-26.29-4.59-39.44c-0.95-8.43-2.71-16.69-4.86-24.88
			c-0.51-1.94-1.54-2.77-3.05-2.76c-1.51,0.01-2.59,0.81-2.98,2.81c-1.2,6.14-2.71,12.28-3.23,18.49
			C504.32,545.08,504.5,552.97,504.29,562.39z M506.18,71.92c-1,4.41-4.27,7.86-2.1,12.44c0.08,0.17-0.1,0.47-0.28,1.18
			c-5.83-5.14-11.43-10.08-17.27-15.22c-1.69,4.3-0.02,7.91,0.61,11.53c1.37,7.85,7.67,11.39,13.6,14.98
			c-1.57,3.23-3.25,6.18-4.46,9.31c-0.83,2.15-2.15,3.67-3.79,5.19c-2.54,2.36-4.84,4.99-7.17,7.56c-0.43,0.48-0.54,1.25-0.79,1.88
			c0.21,0.16,0.43,0.32,0.64,0.48c1.46-1.12,2.96-2.18,4.37-3.36c1.43-1.2,2.77-2.52,4.16-3.79c1.94,2.37,2.61,2.39,4.27,0.11
			c0.64-0.88,1.02-1.97,1.73-2.78c0.95-1.09,1.99-2.19,3.2-2.94c1.33-0.83,2.85-1.51,4.38-1.83c5.18-1.07,8.18-4.21,9.36-9.25
			c0.09-0.39,0.2-0.77,0.35-1.14c1.44-3.6,3.44-6.71,7.14-8.41c1.89-0.87,3.77-1.77,5.64-2.69c0.55-0.27,1.04-0.68,1.56-1.03
			c-1.46-0.52-2.81-0.64-4.12-0.49c-1.46,0.16-2.89,0.57-4.41,0.89c-1.24-1-2.53-1.88-4.31-1.18c-1.54,0.61-3.14,1.07-4.81,1.64
			c-0.91-2.22-1.71-4.46-2.73-6.58C509.89,76.22,509.12,73.77,506.18,71.92z M477.06,234.07c-0.11-1.44-0.23-2.6-0.28-3.77
			c-0.27-5.86-0.43-11.74-0.83-17.59c-0.25-3.77-0.76-7.52-1.31-11.25c-0.17-1.14-0.11-2.97-1.96-2.8
			c-1.63,0.15-1.37,1.76-1.39,2.88c-0.18,11.34-0.34,22.68-0.45,34.02c-0.01,0.97,0.24,1.98,0.56,2.91
			c0.84,2.44,2.77,3.05,4.92,1.66c0.65-0.42,1.31-0.98,2.03-1.1c4.41-0.75,8.84-1.41,13.27-2.03c0.49-0.07,1.1,0.19,1.56,0.46
			c2.77,1.59,4.59,0.69,4.93-2.45c0.26-2.44,0.54-4.88,0.82-7.4c2.28,0,4.23,0,6.32,0c0.29,1.02,0.55,1.96,0.83,2.9
			c0.57,1.91,1.12,3.82,1.73,5.71c0.24,0.75,0.55,1.5,0.97,2.17c1.08,1.75,2.99,2.33,4.61,1.48c1.52-0.8,2.09-2.53,1.35-4.41
			c-0.88-2.22-1.86-4.39-2.77-6.6c-0.46-1.11-0.68-2.05,0.21-3.28c1.21-1.69,0.67-3.29-1.21-4.15c-1.13-0.51-1.7-1.15-2.01-2.29
			c-0.88-3.26-2.13-6.46-2.71-9.77c-0.6-3.44-3.49-5.63-4.28-8.9c-0.09-0.36-0.73-0.87-1.05-0.82c-0.49,0.07-1.1,0.46-1.33,0.89
			c-0.36,0.69-0.48,1.51-0.65,2.29c-1.23,5.84-2.42,11.68-3.66,17.52c-0.82,3.85-1.69,7.69-2.53,11.51
			C487.31,231.01,482.52,233.03,477.06,234.07z M543.29,182.34c7.48,1.33,14.71-0.09,21.96-0.2c0.57-0.01,1.16-0.27,1.69-0.53
			c1.18-0.57,1.82-1.54,1.73-2.88c-0.09-1.32-0.79-2.29-2.08-2.61c-1.05-0.26-2.17-0.47-3.23-0.4c-3.17,0.2-6.35,0.48-9.51,0.86
			c-3.52,0.42-7.02,0.99-10.68,1.52c-0.19-1.65,0.03-3.12-0.55-4.13c-1.79-3.09-1.58-6.51-2.11-9.81c-0.17-1.03-0.24-2.07-0.38-3.38
			c1.27,0,2.14,0.01,3.02,0c3.19-0.04,6.38,0.02,9.55-0.19c1.65-0.11,3.32-0.6,4.89-1.15c1.25-0.44,1.76-1.58,1.54-2.91
			c-0.22-1.35-1.13-2.09-2.41-2.3c-0.78-0.13-1.6-0.13-2.38-0.05c-2.37,0.25-4.74,0.57-7.11,0.87c-2.51,0.32-5.02,0.64-7.44,0.95
			c-0.56-1.58-0.25-2.31,1.08-2.5c4.42-0.61,8.68-2.3,13.24-1.9c1.14,0.1,2.09-0.39,2.31-1.44c0.15-0.76-0.11-1.77-0.54-2.45
			c-0.82-1.29-2.27-1.49-3.7-1.53c-3.43-0.09-6.71,0.71-9.96,1.7c-0.99,0.3-2,0.55-3.11,0.86c-0.13-0.77-0.23-1.15-0.26-1.53
			c-0.08-0.94-0.26-1.93-1.41-1.94c-1.35-0.01-1.35,1.14-1.54,2.14c-0.21,1.15-0.63,2.25-0.88,3.4c-0.12,0.55-0.1,1.15-0.04,1.71
			c0.11,1.07,0.38,2.13,0.42,3.19c0.24,6.56,0.41,13.13,0.67,19.7c0.08,2.09,0.26,4.18,0.59,6.24c0.48,3,3.24,3.95,5.53,1.97
			C542.54,183.28,542.82,182.87,543.29,182.34z M468.41,156.53c0.22-0.07,0.44-0.13,0.66-0.2c0.58,1.01,1.18,2.01,1.74,3.03
			c3.77,6.89,7.53,13.78,11.32,20.66c0.57,1.04,1.17,2.1,1.95,2.99c1.03,1.18,2.47,1.3,3.84,0.7c1.28-0.56,1.98-1.67,1.88-3.11
			c-0.06-0.78-0.31-1.55-0.51-2.31c-1.65-6.44-3.26-12.9-4.98-19.32c-1.23-4.6-2.59-9.17-3.94-13.74c-0.23-0.79-0.36-1.84-2-1.74
			c-0.69,6.54,1.28,12.97,1.39,20.1c-0.7-0.74-0.98-0.98-1.19-1.27c-3.26-4.51-6.39-9.13-10.69-12.77c-0.35-0.3-0.59-0.8-0.73-1.25
			c-0.31-0.98-0.58-2.05-1.89-1.87c-1.33,0.19-1.18,1.39-1.29,2.35c-0.04,0.3-0.04,0.6-0.05,0.89c-0.04,6.46-0.17,12.93-0.06,19.39
			c0.06,3.77,0.4,7.54,0.83,11.29c0.22,1.93,1.65,2.99,3.19,2.87c1.58-0.13,2.76-1.39,2.79-3.29c0.03-1.68-0.12-3.37-0.29-5.05
			C469.73,168.76,469.06,162.65,468.41,156.53z M475.05,415.03c1.61,0,2.69,0,3.77,0c3.38,0.02,6.77,0.11,10.15,0.02
			c1.47-0.04,2.98-0.29,4.39-0.71c1.63-0.5,2.42-1.83,2.18-3.13c-0.26-1.4-1.29-2.11-3.12-2.12c-0.4,0-0.79,0.06-1.19,0.08
			c-5.44,0.25-10.88,0.5-16.59,0.75c-0.11-1.42-0.23-2.86-0.37-4.64c2.38-0.32,4.52-0.67,6.67-0.87c2.77-0.26,5.56-0.37,8.33-0.57
			c1.81-0.13,2.83-1.02,2.81-2.41c-0.02-1.38-1.05-2.24-2.86-2.37c-0.5-0.04-1-0.07-1.49-0.01c-3.74,0.48-7.49,0.92-11.21,1.5
			c-1.43,0.22-2.77,1.08-4.09-0.37c-0.21-0.23-1.62,0.09-1.71,0.38c-0.45,1.56-1.1,3.26-0.84,4.77c0.41,2.44,1.12,4.79,0.26,7.26
			c-0.15,0.42-0.05,0.97,0.04,1.44c0.25,1.24,0.6,2.47,0.82,3.71c0.49,2.73,1.08,5.46,1.34,8.22c0.24,2.59,1.88,3.2,3.99,3.55
			c6.69,1.12,13.29-0.03,19.89-0.86c2-0.25,3.52-1.58,3.77-3.7c0.1-0.86-0.23-2.01-0.8-2.66c-0.78-0.9-2.09-0.87-2.99-0.09
			c-1.32,1.16-2.87,1.24-4.45,1.4c-1.09,0.11-2.17,0.27-3.26,0.38c-3.93,0.4-7.85,0.78-12.13,1.21
			C475.92,421.74,475.51,418.63,475.05,415.03z M504.02,454.47c0.98,0,1.76,0.02,2.54,0c2.98-0.09,5.97-0.1,8.94-0.33
			c2.32-0.18,3.39-1.18,3.33-2.66c-0.07-1.55-1.16-2.28-3.55-2.21c-1.99,0.06-3.97,0.3-5.95,0.36c-2.36,0.06-4.73,0.09-7.08-0.04
			c-1.11-0.06-1.78,0.32-2.03,1.27c-0.24,0.95-0.41,1.98-0.31,2.95c0.67,7.02,1.35,14.04,2.17,21.05c0.26,2.21,0.92,2.63,3.11,2.91
			c0.69,0.09,1.4,0.15,2.08,0.08c5.83-0.61,11.67-1.14,17.48-1.95c3.15-0.44,5.75-2.18,7.61-4.83c0.96-1.37,0.77-2.85-0.34-3.74
			c-1.08-0.87-2.37-0.96-3.45,0.31c-2.09,2.46-4.87,2.81-7.76,3.18c-3.84,0.48-7.67,1.12-11.5,1.67c-0.84,0.12-1.69,0.15-2.62,0.23
			c-0.38-3.86-1.55-7.36-1.38-11.3c4.67-0.35,9.09-0.59,13.37,1.17c0.64,0.26,1.26,0.63,1.92,0.8c1.21,0.31,2.14-0.22,2.76-1.26
			c0.65-1.1,0.41-2.17-0.49-2.96c-0.66-0.58-1.47-1.03-2.28-1.38c-3.63-1.6-7.44-2.08-11.38-1.64c-1.57,0.17-3.13,0.37-4.88,0.58
			C504.21,455.93,504.13,455.31,504.02,454.47z M393.85,401.88c-0.25-0.33-0.47-0.53-0.59-0.79c-0.17-0.36-0.2-0.79-0.4-1.11
			c-0.67-1.07-1.91-1.13-2.29-0.03c-0.48,1.37-0.9,2.85-0.93,4.29c-0.05,2.27,0.28,4.54,0.39,6.81c0.27,5.07,0.45,10.14,0.77,15.2
			c0.18,2.85,0.98,3.42,3.74,3.34c1.68-0.05,3.37,0.18,5.06,0.17c4.37-0.02,8.74-0.07,13.11-0.2c0.86-0.03,1.77-0.34,2.53-0.74
			c1.09-0.58,1.43-1.62,1.08-2.81c-0.35-1.2-1.28-1.36-2.37-1.25c-1.39,0.14-2.78,0.26-4.17,0.33c-4.45,0.22-8.9,0.4-13.6,0.61
			c-0.39-3.75-0.77-7.33-1.18-11.27c5.66,0.28,10.89-1.1,16.12,0.47c1.41,0.43,2.73-0.3,3.25-1.44c0.58-1.28,0.18-2.84-1.2-3.6
			c-1.11-0.6-2.38-1.06-3.62-1.23c-1.76-0.23-3.58-0.24-5.36-0.13c-3.15,0.19-6.29,0.54-9.72,0.86c-0.09-1.1-0.18-2.13-0.29-3.38
			c2.94-0.36,5.59-0.69,8.25-1.02c0.88-0.11,1.89-0.02,2.61-0.42c0.67-0.37,1.34-1.24,1.45-1.98c0.16-1.08-0.69-1.88-1.77-2.04
			c-0.87-0.13-1.79-0.04-2.67,0.09C399.31,401,396.57,401.45,393.85,401.88z M581.62,411.2c0.9,0.75,1.59,1.18,2.09,1.76
			c4.35,5.1,8.45,10.33,9.51,17.27c0.37,2.4,1.99,3.57,3.85,3.2c1.91-0.38,3.04-2.03,2.58-4.34c-0.3-1.52-1.07-2.96-1.7-4.4
			c-3.22-7.33-7.25-13.97-14.91-17.33c0-2.45,0.22-4.76-0.05-7c-0.43-3.54-3.07-4.55-5.67-2.16c-1.42,1.3-2.45,3.03-3.69,4.62
			c-0.42-0.67-0.93-1.47-1.72-2.72c-0.46,0.85-0.98,1.36-0.97,1.86c0.11,5.26,0.3,10.53,0.46,15.79c0.1,3.38,0.16,6.77,0.32,10.15
			c0.09,1.94,0.87,2.79,2.36,2.85c1.59,0.06,2.52-0.9,2.52-2.96c0-1.68-0.25-3.36-0.44-5.04c-0.18-1.67-0.42-3.33-0.66-5.24
			C578.87,416.79,579.97,413.96,581.62,411.2z M460.25,169.65c0.14-5.83-0.2-11.1-2.86-15.84c-1.55-2.75-3.41-5.34-5.35-7.84
			c-1.19-1.53-2.98-2.64-4.98-1.82c-2.1,0.86-1.95,3.02-2.02,4.9c-0.02,0.48,0.17,0.97,0.24,1.45c0.13,0.87,0.31,1.73,0.36,2.6
			c0.26,4.16,0.21,8.35,0.82,12.46c0.57,3.9,1.68,7.75,2.84,11.53c0.47,1.55,1.45,3.09,2.59,4.26c2.43,2.49,5.63,1.84,6.95-1.36
			c0.6-1.44,0.86-3.05,1.05-4.61C460.13,173.31,460.15,171.22,460.25,169.65z M437.95,414.95c-0.5-0.54-0.86-0.85-1.12-1.23
			c-2.13-3.12-4.22-6.27-6.36-9.38c-0.88-1.27-2.28-2.25-1.78-4.17c0.09-0.33-0.54-1.13-0.96-1.23c-0.44-0.11-1.23,0.2-1.51,0.59
			c-0.44,0.61-0.73,1.42-0.83,2.18c-0.27,1.97-0.41,3.95-0.58,5.93c-0.37,4.45-0.75,8.9-1.06,13.36c-0.12,1.78-0.17,3.58-0.07,5.36
			c0.07,1.23,0.87,1.97,2.17,2c1.3,0.03,2.05-0.7,2.29-1.9c0.14-0.67,0.09-1.39,0.1-2.08c0.04-4.27,0.05-8.55,0.11-12.82
			c0.01-0.61,0.19-1.21,0.32-1.96c0.4,0.31,0.61,0.39,0.69,0.55c2.81,5.61,5.94,11.02,10.05,15.81c0.31,0.36,0.41,0.9,0.63,1.34
			c1.28,2.48,3.42,2.69,5.15,0.54c0.9-1.12,0.99-2.26,0.47-3.61c-0.92-2.4-1.93-4.81-2.5-7.31c-1.51-6.68-3.1-13.36-3.08-20.29
			c0-0.52-0.62-1.04-0.95-1.56c-0.45,0.45-1.15,0.83-1.3,1.36c-0.32,1.13-0.52,2.34-0.49,3.51
			C437.48,404.78,437.72,409.63,437.95,414.95z M497.72,143.85c-1.77,1.04-1.34,2.31-1.34,3.46c-0.01,1.58,0.2,3.21-0.09,4.74
			c-1.37,7.25-1.01,14.46,0.27,21.66c0.58,3.29,1.9,6.28,3.94,8.92c1.59,2.06,3.71,3.08,6.29,2.41c2.37-0.61,3.06-2.63,3.42-4.78
			c0.86-5.08,0.67-10.12-0.87-15.05c-2.18-7-5.88-13.25-9.81-19.37C499.07,145.12,498.37,144.55,497.72,143.85z M531.02,237.37
			c-2.55-0.53-3.41-0.84-4.76-2.81c-1.91-2.77-3.59-5.7-5.3-8.61c-0.65-1.11-1.47-1.65-2.68-1.2c-1.08,0.4-1.42,1.35-1.24,2.43
			c0.11,0.68,0.3,1.36,0.54,2.02c1.26,3.53,3.3,6.6,5.95,9.2c2.01,1.96,4.38,3.46,7.33,3.67c4.16,0.3,6.06-1.73,5.11-5.77
			c-0.49-2.1-1.26-4.21-2.29-6.11c-1.79-3.33-3.88-6.49-5.81-9.74c-1.01-1.71-1.97-3.45-2.92-5.2c-1.08-2-1.28-4.18-1.05-6.39
			c0.28-2.64,1.98-3.43,4.18-1.98c0.99,0.65,1.85,1.51,2.85,2.16c0.32,0.21,1.18,0.17,1.28-0.01c0.22-0.43,0.35-1.25,0.11-1.5
			c-1.39-1.4-2.71-3.01-4.4-3.91c-4.21-2.24-7.65-0.64-8.91,3.98c-0.93,3.39-0.59,6.74,1.11,9.84c1.24,2.27,2.67,4.43,4.02,6.63
			c1.88,3.05,3.81,6.07,5.62,9.15C530.5,234.44,531.28,235.75,531.02,237.37z M531.74,174.49c-0.62,0.16-0.89,0.14-0.98,0.26
			c-0.66,0.86-1.29,1.74-1.91,2.63c-2.64,3.79-4.02,3.87-6.48,0.05c-3.11-4.83-5.06-10.17-5.54-15.89c-0.27-3.14,0.06-6.34,0.32-9.5
			c0.12-1.43,0.97-2.62,2.65-2.78c1.47-0.14,2.83,0.66,3.47,2.28c0.7,1.75,1.17,3.59,1.82,5.36c0.25,0.67,0.73,1.24,1.24,2.08
			c0.5-0.61,0.97-0.92,0.94-1.17c-0.42-3.58-1.07-7.16-3.89-9.71c-4.06-3.68-9.46-2.14-11.11,3.1c-0.39,1.22-0.61,2.51-0.76,3.79
			c-0.83,7.26,0.22,14.27,2.99,21.02c1.42,3.46,3.5,6.49,6.52,8.74c3.05,2.29,7.01,1.66,8.75-1.56c1.11-2.07,1.71-4.43,2.38-6.71
			C532.34,175.91,531.9,175.16,531.74,174.49z M440.76,154.72c0.16-0.66,0.53-1.28,0.36-1.64c-1.18-2.41-2.27-4.9-3.79-7.09
			c-1.04-1.5-2.58-2.79-4.16-3.73c-2.7-1.61-5.3-0.83-6.84,1.94c-0.76,1.36-1.29,2.93-1.55,4.47c-1.59,9.19-0.43,18.07,3.69,26.44
			c0.99,2.01,2.52,3.83,4.09,5.45c0.9,0.93,2.34,1.51,3.64,1.83c2.64,0.65,4.48-0.7,4.95-3.36c0.07-0.39,0.07-0.79,0.09-1.19
			c0.12-2.09,0.24-4.17,0.34-6.26c0.05-0.95,0.42-2.19-0.9-2.47c-1.39-0.29-1.48,0.97-1.72,1.93c-0.33,1.35-0.62,2.72-1.01,4.05
			c-0.17,0.6-0.53,1.14-0.99,2.11c-1.17-1.47-2.29-2.51-2.96-3.79c-4.22-8.08-5.89-16.65-4.57-25.71c0.46-3.17,2.08-3.83,4.41-1.71
			c1.43,1.31,2.43,3.1,3.58,4.71C438.38,152.03,438.84,153.77,440.76,154.72z M476.97,446.61c-0.13,1.02-0.29,1.68-0.29,2.34
			c0.06,7.06,0.11,14.12,0.24,21.17c0.04,2.28,0.21,4.57,0.5,6.84c0.32,2.49,2.45,3.54,4.25,2.12c4.17-3.29,7.82-7.03,10.17-11.9
			c1.37-2.85,1.76-5.82,0.48-8.65c-2.58-5.7-7.02-9.5-12.95-11.52C478.74,446.79,478.04,446.78,476.97,446.61z M546.63,426.86
			c-0.45,0.11-0.67,0.25-0.8,0.19c-0.36-0.15-0.75-0.32-1.03-0.59c-3.61-3.56-6.56-7.48-6.61-12.87c-0.02-1.49,0.11-2.99-0.06-4.46
			c-0.06-0.51-0.81-1.26-1.31-1.32c-0.48-0.06-1.16,0.55-1.56,1.03c-0.28,0.34-0.29,0.93-0.35,1.42
			c-0.95,7.17,1.66,13.06,6.61,18.05c1.43,1.44,3.15,2.37,5.29,2.39c3.15,0.03,4.47-1.32,3.8-4.41c-0.41-1.92-1.24-3.76-1.97-5.6
			c-1.51-3.78-3.23-7.48-4.56-11.33c-0.77-2.22-1.18-4.63-1.31-6.99c-0.15-2.66,1.73-3.99,4.34-3.34c0.84,0.21,1.59,0.78,2.4,1.14
			c0.57,0.25,1.17,0.41,1.75,0.62c0.17-0.44,0.34-0.69,0.28-0.79c-1.39-2.41-4.76-3.8-7.73-3.21c-2.62,0.52-4.37,2.43-4.74,5.44
			c-0.43,3.52,0.07,6.97,1.38,10.24c1.55,3.87,3.3,7.66,4.96,11.48C545.83,424.9,546.22,425.88,546.63,426.86z M553.38,400.04
			c0.33,1.66,0.68,3.05,0.86,4.47c0.18,1.48,0.14,2.98,0.25,4.47c0.43,5.47,1.15,10.89,3.16,16.03c0.6,1.55,1.39,3.13,2.47,4.36
			c1.97,2.21,4.56,1.6,5.58-1.16c0.34-0.92,0.57-1.93,0.6-2.91c0.27-8.14,0.5-16.28,0.7-24.43c0.01-0.32-0.33-0.64-0.55-1.07
			c-2.57,0.91-3.34,2.87-3.49,5.14c-0.18,2.78-0.13,5.57-0.27,8.35c-0.13,2.6-0.38,5.2-0.57,7.8c-0.23,0.03-0.47,0.06-0.7,0.09
			c-0.38-1.08-0.87-2.13-1.13-3.23c-0.82-3.58-1.55-7.19-2.34-10.78c-0.41-1.84-0.74-3.71-1.33-5.5
			C556,399.84,555.39,399.65,553.38,400.04z M507.75,422.09c-0.43-4.33-0.81-8.27-1.22-12.21c-0.4-3.75-0.8-7.5-1.31-11.24
			c-0.07-0.5-0.79-0.92-1.21-1.37c-0.34,0.43-0.88,0.82-0.97,1.3c-0.25,1.26-0.43,2.56-0.41,3.84c0.12,7.05,0.29,14.1,0.5,21.15
			c0.03,1.07,0.25,2.19,0.66,3.18c0.62,1.49,1.94,1.87,3.46,1.34c1.66-0.57,3.34-1.12,5.05-1.54c3.28-0.8,6.59-1.44,9.86-2.28
			c2.14-0.55,2.94-1.58,2.7-2.94c-0.28-1.6-1.55-2.37-3.66-2.13c-0.98,0.11-1.96,0.3-2.93,0.51
			C514.9,420.45,511.52,421.23,507.75,422.09z M428.91,107.5c1.43,0,2.59,0.03,3.75,0c7.26-0.22,14.51-0.51,21.77-0.68
			c5.07-0.12,10.14-0.1,15.21-0.12c0.89,0,1.79-0.14,1.66-1.14c-0.08-0.57-0.86-1.3-1.47-1.48c-0.92-0.28-1.97-0.21-2.96-0.18
			c-6.96,0.25-13.92,0.48-20.87,0.81c-4.87,0.23-9.73,0.61-14.59,0.96C430.53,105.73,429.34,105.32,428.91,107.5z M538.16,107.94
			c-1.12-0.72-1.74-1.42-2.44-1.51c-1-0.13-1.59,0.66-1.55,1.68c0.04,1.02,0.7,1.76,1.68,1.55
			C536.54,109.51,537.11,108.76,538.16,107.94z M530.01,107.84c-1.01-0.67-1.57-1.34-2.16-1.38c-1-0.06-1.71,0.75-1.4,1.72
			c0.17,0.55,1.04,1.2,1.6,1.21C528.56,109.4,529.09,108.61,530.01,107.84z M544.87,108.11c-0.95-0.67-1.43-1.25-1.95-1.28
			c-0.4-0.03-1.26,0.73-1.2,0.95c0.14,0.54,0.62,1.26,1.1,1.38C543.25,109.26,543.85,108.66,544.87,108.11z"/>
		<path d="M624.58,533.43c0.96,6.03,1.84,11.59,2.76,17.35c3.14-0.46,5.97-0.89,8.8-1.3c9.27-1.32,18.58-2.29,27.96-2.15
			c2.38,0.04,4.78,0.25,7.14,0.58c5.03,0.71,8.47,3.82,9.4,8.32c1.08,5.19-2.43,10.54-7.68,11.23c-2.2,0.29-4.52-0.23-6.77-0.48
			c-1.37-0.15-2.71-0.73-4.07-0.72c-10.36,0.11-20.71,0.32-31.07,0.51c-0.37,0.01-0.75,0.16-1.3,0.29
			c1.77,14.88,3.53,29.66,5.31,44.6c2.3,0,4.46,0.07,6.62-0.01c7.86-0.3,15.72-0.63,23.58-0.99c3.98-0.18,7.96-0.38,11.93-0.7
			c0.93-0.07,1.97-0.45,2.69-1.03c5.1-4.06,14.39-2.59,16.75,5.75c0.38,1.34,0.91,2.66,1.05,4.03c0.55,5.43-3.95,10.81-9.51,10.95
			c-16.41,0.42-32.85,1.46-49.23-0.66c-1.48-0.19-2.97-0.34-4.43-0.67c-2.34-0.53-4.6-0.7-7.04-0.31c-4.97,0.8-9.39-2.62-10.18-7.88
			c-0.63-4.22-0.9-8.51-1.12-12.78c-0.73-13.72-1.38-27.44-2.02-41.17c-0.08-1.65-0.46-3.01-1.56-4.34
			c-1.83-2.21-1.93-4.71-0.22-6.87c1.05-1.33,1.18-2.61,1.12-4.13c-0.18-4.77-0.32-9.55-0.41-14.33c-0.03-1.59,0.07-3.19,0.28-4.76
			c0.18-1.32,0.12-2.47-0.47-3.74c-0.93-2.02-0.39-3.34,1.43-4.59c0.97-0.67,1.9-1.42,2.86-2.11c0.4-0.29,0.81-0.62,1.27-0.76
			c5.99-1.77,11.95-3.66,17.99-5.22c7.52-1.95,15.14-3.5,22.97-3.35c1.38,0.03,2.81,0.08,4.13,0.43c5.06,1.34,7.99,5.62,7.51,10.73
			c-0.45,4.76-4.31,8.58-9.22,9.1c-0.69,0.07-1.4,0.15-2.09,0.07c-6.19-0.72-12.31,0.42-18.47,0.66c-4.77,0.19-9.55,0.3-14.33,0.44
			C626.28,533.45,625.6,533.43,624.58,533.43z"/>
		<path d="M459.83,548.78c-12.57,0.78-24.95,1.54-37.75,2.33c0.35,2.87,0.64,5.39,0.96,7.91c1.75,13.51,3.48,27.03,5.27,40.54
			c0.83,6.2,1.35,12.44,3.24,18.49c1.43,4.56-1.27,9.26-5.71,10.74c-4.47,1.49-9.41-0.59-10.99-5.17c-1.25-3.63-2.13-7.49-2.5-11.31
			c-0.83-8.61-1.37-17.26-1.81-25.91c-0.58-11.33-0.92-22.67-1.44-34.01c-0.06-1.24-0.45-2.51-0.94-3.67
			c-0.66-1.56-0.76-2.99-0.17-4.61c0.43-1.17,0.65-2.49,0.63-3.74c-0.09-4.97-0.49-9.95-0.42-14.92c0.04-2.64,0.64-5.32,1.32-7.9
			c0.33-1.26,1.29-2.46,2.22-3.43c0.94-0.98,2.3-1.19,3.61-0.64c1.34,0.56,1.69,1.64,1.86,3.08c0.81,6.81,1.78,13.61,2.7,20.41
			c0.04,0.27,0.22,0.53,0.38,0.89c12.89-1.79,25.77-3.57,38.99-5.41c0.04-0.88,0.08-1.94,0.12-2.99c0.2-4.57,0.28-9.15,0.65-13.7
			c0.16-1.95,0.81-3.88,1.44-5.76c0.55-1.64,1.82-2.7,3.62-2.58c1.77,0.12,2.92,1.2,3.29,2.97c0.74,3.5,1.55,6.99,2.13,10.52
			c3.47,21,6.54,42.05,8.98,63.2c1.12,9.68,2.31,19.36,3.67,29.01c0.68,4.82,2.06,9.53,2.73,14.35c0.99,7.06-4.56,12.86-11.51,12.36
			c-4.57-0.33-8.5-3.65-9.53-8.55c-0.84-3.98-1.51-8.03-1.8-12.09c-0.55-7.74-0.81-15.5-1.14-23.26
			c-0.64-15.11-1.25-30.23-1.87-45.34C460.07,550.2,459.98,549.81,459.83,548.78z"/>
		<path d="M524.52,266.43c3.79-0.5,7.22-1.1,10.67-1.36c7.94-0.61,15.88-1.08,23.83-1.55c1.07-0.06,2.2,0.09,3.24,0.36
			c3.88,1.01,5.97,4.27,5.31,8.12c-0.6,3.49-3.85,5.89-7.62,5.73c-11.03-0.48-22.07-0.94-33.1-1.4c-0.09,0-0.18,0.06-0.61,0.23
			c0.03,5.48,0.7,11.03,1.12,16.83c1.34-0.13,2.31-0.19,3.27-0.33c12.44-1.71,24.94-2.65,37.51-2.64c1.77,0,3.6,0.22,5.31,0.69
			c3.94,1.07,6.34,4.6,6.03,8.53c-0.27,3.55-2.99,6.46-6.67,7c-0.96,0.14-1.97-0.03-2.95-0.15c-2.06-0.25-4.11-0.72-6.18-0.8
			c-6.67-0.24-13.34-0.38-20.01-0.47c-4.87-0.07-9.75-0.01-15.04-0.01c0.48,13.56,2.48,27.24,5,41.04c0.48,0.03,1.16,0.15,1.83,0.12
			c10.94-0.56,21.88-1.08,32.81-1.78c1.81-0.12,3.63-0.88,5.35-1.59c3.35-1.38,7.34-0.65,10.24,2.06c2.49,2.33,3.32,5.82,2.09,9.03
			c-0.86,2.25-2.38,3.99-4.66,4.75c-1.87,0.63-3.85,1.07-5.81,1.25c-9.05,0.79-18.12,0.43-27.16-0.22
			c-6.74-0.48-13.46-1.33-20.18-2.1c-1.67-0.19-3.3-0.74-4.97-1c-4.62-0.72-7.46-3.57-8.02-8.29c-0.29-2.47-0.51-4.96-0.59-7.44
			c-0.58-18.01-1.14-36.03-0.08-54.04c0.46-7.85,1.06-15.69,3.48-23.25c0.09-0.28,0.11-0.59,0.2-0.87c0.6-1.95,1.64-2.96,3-2.79
			c1.65,0.2,2.29,1.41,2.61,2.87C523.98,264.03,524.22,265.1,524.52,266.43z"/>
		<path d="M403.01,327.73c-6.56,0-13.01,0-19.79,0c-0.52,2.55-1.1,5.14-1.56,7.75c-1.09,6.17-2.16,12.35-3.16,18.54
			c-0.55,3.41-2.05,6.05-5.5,7.12c-4.92,1.53-9.84-2.19-9.64-7.53c0.12-3.36,0.75-6.72,1.37-10.04c0.84-4.5,1.92-8.95,2.85-13.43
			c0.24-1.15,0.31-2.34,0.45-3.52c0.05-0.39-0.03-0.82,0.09-1.17c4.02-11.35,6.05-23.24,9.41-34.77c2.37-8.12,4.37-16.34,7.98-24.05
			c0.37-0.78,0.43-1.71,0.59-2.58c0.44-2.46,1.77-4.19,4.15-5.03c2.35-0.83,4.39-0.06,5.97,1.63c1.49,1.59,3,3.28,3.98,5.19
			c2.54,4.94,5.27,9.87,7.07,15.1c3.52,10.24,6.44,20.7,9.67,31.04c0.52,1.68,1.42,3.24,2.01,4.9c0.43,1.19,0.72,2.45,0.91,3.7
			c0.24,1.65,0.13,3.38,0.5,5c2.5,10.85,4.64,21.79,8.19,32.39c1.69,5.04-0.8,9.73-5.54,11.28c-4.66,1.53-9.32-0.86-11.17-5.87
			c-2.77-7.49-4.63-15.22-6.19-23.04c-0.66-3.32-1.26-6.65-1.92-9.97C403.58,329.52,403.28,328.68,403.01,327.73z M385,318.88
			c5.51-1.36,10.55-2.61,15.56-3.85c-0.9-8.74-6.52-32.24-8.3-34.74C389.86,293.05,387.46,305.79,385,318.88z"/>
		<path d="M367.72,615.67c0.44-0.65,0.92-1.28,1.3-1.96c3.98-7.12,7.99-14.22,11.88-21.39c0.73-1.35,1.24-2.94,1.4-4.47
			c0.62-5.87,8.5-11.61,14.43-9.66c6.61,2.17,9.86,9.89,5.59,15.35c-6.79,8.66-11.8,18.42-17.94,27.46
			c-2.47,3.64-5.15,7.07-8.69,9.77c-6.4,4.89-13.47,3.86-18.13-2.77c-3.65-5.19-5.82-11.07-7.49-17.14
			c-2.24-8.19-3.42-16.56-4.11-24.99c-1.34-16.38-2.02-32.78-1.15-49.21c0.27-5.15,0.66-10.34,1.6-15.4
			c1.27-6.85,6.1-10.31,13.01-10.17c6.93,0.14,13.32,2.19,19.33,5.47c1.53,0.84,2.93,2.08,4.1,3.39c1.21,1.35,1.37,3.08,0.43,4.73
			c-0.91,1.6-2.43,2.03-4.11,1.75c-1.66-0.28-3.3-0.69-4.92-1.16c-3.15-0.9-6.25-2.04-9.44-2.75c-2.18-0.49-4.49-0.41-6.74-0.59
			c-1.28,2.97-1.49,5.78-1.4,8.51c0.29,9.35,0.59,18.7,1.28,28.02c0.67,9.02,1.65,18.03,2.8,27.01c0.95,7.39,2.22,14.74,3.6,22.06
			c0.52,2.78,1.73,5.43,2.62,8.14C367.22,615.66,367.47,615.66,367.72,615.67z"/>
		<path d="M629.16,359.9c0.23-4.62-0.59-8.93-2.15-13.03c-2.01-5.3-4.35-10.47-6.57-15.68c-3.32-7.78-6.79-15.49-9.97-23.33
			c-2.67-6.57-4.3-13.45-4.9-20.54c-0.43-5.14,0.06-10.19,1.92-14.97c0.92-2.36,2.23-4.74,3.93-6.6c3.07-3.38,6.92-5.26,11.76-4.25
			c2.82,0.59,5.71,0.85,8.54,1.41c2.87,0.57,5.47,1.82,7.69,3.77c1.09,0.96,1.85,2.1,1.67,3.64c-0.18,1.56-1.33,2.35-2.72,1.69
			c-3.58-1.7-7.34-1.5-11.11-1.28c-1.09,0.07-2.18,0.34-3.27,0.34c-2.5,0.01-3.84,1.37-4.5,3.6c-1.27,4.31-1.13,8.65-0.24,13
			c1.14,5.59,3.05,10.93,5.52,16.05c4.32,8.96,8.79,17.86,13.09,26.83c2.84,5.94,5.23,12.06,6.44,18.57
			c0.84,4.52,1.2,9.07,0.41,13.66c-0.59,3.42-2.31,6.05-5.13,8.08c-6.75,4.85-18.6,5.41-25.71,0.42c-3.3-2.31-6.18-5.03-8.58-8.24
			c-5.22-6.99-9.36-14.56-12.19-22.82c-1.31-3.81-2.02-7.72-1.61-11.74c0.42-4.13,2.54-7.06,6.52-8.46
			c2.46-0.86,4.76-0.51,6.61,1.41c1.83,1.9,2.32,4.18,1.19,6.6c-0.6,1.28-0.63,2.45-0.26,3.75c2.8,9.95,7.72,18.75,14.66,26.37
			C623.13,361.35,625.23,361.61,629.16,359.9z"/>
		<path d="M565.33,609.39c5.25-1.34,10.04-2.62,14.85-3.79c5.15-1.26,10.39-1.85,15.69-1.64c4.91,0.19,8.8,3.74,9.39,8.4
			c0.65,5.15-2.2,9.62-7.07,11.02c-0.75,0.22-1.56,0.28-2.35,0.36c-8,0.89-16.01,1.78-24.02,2.64c-5.04,0.54-10.08,1.08-15.13,1.53
			c-2.46,0.22-4.7-0.67-6.83-1.82c-1.48-0.8-2.75-2.02-2.61-3.71c0.26-3.26-0.76-6.29-1.21-9.42c-1.64-11.37-1.78-22.81-1.49-34.26
			c0.21-8.45,0.37-16.92,0.96-25.35c0.66-9.52,1.76-19.01,2.69-28.51c0.28-2.87,0.64-5.73,0.99-8.6c0.11-0.89,0.22-1.78,0.44-2.65
			c0.48-1.92,1.59-2.85,3.29-2.86c1.72-0.01,2.93,0.88,3.3,2.82c0.45,2.34,0.72,4.72,0.97,7.09c1.22,11.57,2.48,23.14,3.57,34.73
			c0.6,6.44,0.83,12.91,1.33,19.35c0.78,10.21,1.64,20.42,2.5,30.63C564.69,606.62,565.04,607.86,565.33,609.39z"/>
		<path d="M468.83,315.98c0.14-1.36,0.25-2,0.27-2.64c0.37-10.05,0.52-20.11,1.17-30.13c0.52-8.03,1.62-16.03,2.55-24.04
			c0.32-2.73,1.49-3.96,3.28-3.9c1.74,0.05,2.78,1.26,3.07,4.07c1.21,11.97,2.4,23.95,3.51,35.94c1.1,11.99,2.06,23.99,3.18,35.98
			c0.14,1.53,0.89,3,1.32,4.52c0.32,1.14,0.85,2.31,0.8,3.45c-0.18,3.84,0.02,7.75-2.11,11.3c-0.49,0.82-0.12,2.28,0.09,3.39
			c0.75,3.82-0.71,7.39-3.88,9.25c-3.81,2.22-8.57,1.18-11.07-2.55c-0.99-1.48-1.84-3.09-2.5-4.75
			c-7.54-18.95-15.2-37.85-22.44-56.91c-2.89-7.6-4.85-15.56-7.16-23.37c-0.45-1.52-0.64-3.12-0.84-4.7
			c-0.34-2.62,0.52-4.27,2.41-4.85c1.75-0.55,3.27,0.26,4.48,2.54c1.63,3.08,3.22,6.18,4.77,9.3c5.81,11.67,11.59,23.35,17.4,35.02
			C467.53,313.74,468.03,314.55,468.83,315.98z"/>
		<path d="M504.29,562.39c0.22-9.41,0.03-17.31,0.69-25.12c0.53-6.21,2.03-12.35,3.23-18.49c0.39-2.01,1.47-2.8,2.98-2.81
			c1.51-0.01,2.54,0.82,3.05,2.76c2.15,8.19,3.91,16.45,4.86,24.88c1.48,13.15,3.05,26.29,4.59,39.44
			c0.61,5.24,1.25,10.47,1.88,15.71c0.07,0.59,0.03,1.25,0.29,1.76c2.69,5.32,2.05,11.09,2.13,16.7c0.07,4.96-4.14,8.93-9.15,9.36
			c-4.87,0.42-9.56-3.01-10.41-7.95c-0.59-3.42-0.78-6.92-1.02-10.39C506.3,592.44,505.25,576.65,504.29,562.39z"/>
		<path d="M506.18,71.92c2.95,1.85,3.71,4.3,4.77,6.5c1.02,2.13,1.82,4.36,2.73,6.58c1.68-0.56,3.27-1.03,4.81-1.64
			c1.78-0.7,3.07,0.18,4.31,1.18c1.52-0.32,2.95-0.72,4.41-0.89c1.31-0.15,2.66-0.03,4.12,0.49c-0.52,0.35-1.01,0.75-1.56,1.03
			c-1.87,0.92-3.75,1.82-5.64,2.69c-3.69,1.7-5.7,4.81-7.14,8.41c-0.15,0.37-0.26,0.75-0.35,1.14c-1.18,5.04-4.18,8.18-9.36,9.25
			c-1.53,0.32-3.05,1-4.38,1.83c-1.21,0.75-2.25,1.85-3.2,2.94c-0.71,0.81-1.09,1.9-1.73,2.78c-1.67,2.28-2.33,2.26-4.27-0.11
			c-1.39,1.27-2.73,2.59-4.16,3.79c-1.4,1.18-2.91,2.24-4.37,3.36c-0.21-0.16-0.43-0.32-0.64-0.48c0.26-0.63,0.36-1.41,0.79-1.88
			c2.33-2.58,4.63-5.2,7.17-7.56c1.64-1.52,2.96-3.03,3.79-5.19c1.21-3.13,2.88-6.08,4.46-9.31c-5.94-3.59-12.23-7.13-13.6-14.98
			c-0.63-3.63-2.3-7.23-0.61-11.53c5.83,5.14,11.44,10.08,17.27,15.22c0.18-0.71,0.36-1.01,0.28-1.18
			C501.91,79.78,505.18,76.33,506.18,71.92z"/>
		<path d="M477.06,234.07c5.46-1.03,10.25-3.05,15.69-2.2c0.84-3.82,1.71-7.66,2.53-11.51c1.24-5.84,2.44-11.68,3.66-17.52
			c0.16-0.78,0.28-1.6,0.65-2.29c0.23-0.43,0.84-0.82,1.33-0.89c0.32-0.05,0.96,0.46,1.05,0.82c0.79,3.27,3.68,5.46,4.28,8.9
			c0.58,3.31,1.82,6.5,2.71,9.77c0.31,1.14,0.88,1.78,2.01,2.29c1.89,0.85,2.43,2.46,1.21,4.15c-0.89,1.24-0.66,2.17-0.21,3.28
			c0.91,2.21,1.89,4.38,2.77,6.6c0.74,1.88,0.17,3.61-1.35,4.41c-1.62,0.85-3.53,0.27-4.61-1.48c-0.41-0.67-0.72-1.42-0.97-2.17
			c-0.61-1.89-1.16-3.8-1.73-5.71c-0.28-0.94-0.54-1.88-0.83-2.9c-2.08,0-4.04,0-6.32,0c-0.28,2.52-0.56,4.96-0.82,7.4
			c-0.33,3.14-2.16,4.03-4.93,2.45c-0.46-0.26-1.07-0.53-1.56-0.46c-4.43,0.62-8.86,1.28-13.27,2.03c-0.72,0.12-1.38,0.68-2.03,1.1
			c-2.15,1.39-4.08,0.78-4.92-1.66c-0.32-0.93-0.57-1.94-0.56-2.91c0.11-11.34,0.26-22.68,0.45-34.02c0.02-1.12-0.24-2.74,1.39-2.88
			c1.86-0.17,1.79,1.66,1.96,2.8c0.56,3.73,1.06,7.49,1.31,11.25c0.39,5.86,0.55,11.73,0.83,17.59
			C476.83,231.46,476.95,232.63,477.06,234.07z M501.79,210.62c-0.17,0.01-0.34,0.01-0.51,0.02c-0.54,3.97-1.09,7.93-1.69,12.35
			c1.74-0.39,3.02-0.67,4.43-0.99C503.22,217.98,502.51,214.3,501.79,210.62z"/>
		<path d="M543.29,182.34c-0.47,0.53-0.75,0.95-1.12,1.26c-2.29,1.98-5.05,1.04-5.53-1.97c-0.33-2.06-0.51-4.15-0.59-6.24
			c-0.26-6.56-0.42-13.13-0.67-19.7c-0.04-1.07-0.31-2.13-0.42-3.19c-0.06-0.57-0.07-1.16,0.04-1.71c0.25-1.14,0.67-2.25,0.88-3.4
			c0.19-1,0.18-2.15,1.54-2.14c1.15,0.01,1.33,0.99,1.41,1.94c0.03,0.38,0.13,0.76,0.26,1.53c1.11-0.3,2.11-0.55,3.11-0.86
			c3.25-0.99,6.52-1.8,9.96-1.7c1.43,0.04,2.88,0.24,3.7,1.53c0.43,0.68,0.7,1.69,0.54,2.45c-0.21,1.05-1.16,1.54-2.31,1.44
			c-4.56-0.4-8.83,1.29-13.24,1.9c-1.33,0.18-1.64,0.92-1.08,2.5c2.42-0.31,4.93-0.64,7.44-0.95c2.37-0.3,4.73-0.62,7.11-0.87
			c0.79-0.08,1.61-0.08,2.38,0.05c1.28,0.21,2.19,0.96,2.41,2.3c0.22,1.34-0.29,2.48-1.54,2.91c-1.58,0.56-3.24,1.04-4.89,1.15
			c-3.17,0.21-6.37,0.15-9.55,0.19c-0.88,0.01-1.76,0-3.02,0c0.15,1.32,0.22,2.36,0.38,3.38c0.53,3.3,0.33,6.72,2.11,9.81
			c0.58,1.01,0.36,2.48,0.55,4.13c3.66-0.53,7.16-1.1,10.68-1.52c3.16-0.38,6.33-0.66,9.51-0.86c1.07-0.07,2.18,0.14,3.23,0.4
			c1.29,0.32,1.99,1.29,2.08,2.61c0.09,1.33-0.55,2.3-1.73,2.88c-0.53,0.26-1.12,0.52-1.69,0.53
			C558,182.25,550.77,183.66,543.29,182.34z"/>
		<path d="M468.41,156.53c0.65,6.11,1.32,12.22,1.94,18.34c0.17,1.68,0.32,3.37,0.29,5.05c-0.03,1.9-1.21,3.16-2.79,3.29
			c-1.54,0.13-2.97-0.94-3.19-2.87c-0.42-3.75-0.76-7.52-0.83-11.29c-0.11-6.46,0.03-12.92,0.06-19.39c0-0.3,0.01-0.6,0.05-0.89
			c0.12-0.96-0.04-2.16,1.29-2.35c1.31-0.19,1.58,0.89,1.89,1.87c0.14,0.45,0.38,0.95,0.73,1.25c4.3,3.65,7.44,8.26,10.69,12.77
			c0.21,0.29,0.49,0.53,1.19,1.27c-0.1-7.13-2.08-13.56-1.39-20.1c1.64-0.1,1.77,0.95,2,1.74c1.35,4.57,2.71,9.14,3.94,13.74
			c1.72,6.43,3.33,12.88,4.98,19.32c0.2,0.77,0.46,1.53,0.51,2.31c0.1,1.44-0.6,2.55-1.88,3.11c-1.37,0.6-2.81,0.48-3.84-0.7
			c-0.78-0.89-1.38-1.95-1.95-2.99c-3.79-6.88-7.54-13.78-11.32-20.66c-0.56-1.02-1.16-2.02-1.74-3.03
			C468.85,156.4,468.63,156.47,468.41,156.53z"/>
		<path d="M475.05,415.03c0.46,3.6,0.87,6.71,1.31,10.15c4.28-0.42,8.21-0.81,12.13-1.21c1.09-0.11,2.17-0.27,3.26-0.38
			c1.58-0.16,3.13-0.24,4.45-1.4c0.89-0.78,2.21-0.81,2.99,0.09c0.56,0.65,0.9,1.8,0.8,2.66c-0.25,2.12-1.77,3.45-3.77,3.7
			c-6.6,0.84-13.2,1.98-19.89,0.86c-2.11-0.35-3.74-0.96-3.99-3.55c-0.26-2.76-0.85-5.48-1.34-8.22c-0.22-1.25-0.58-2.47-0.82-3.71
			c-0.09-0.47-0.19-1.01-0.04-1.44c0.87-2.48,0.15-4.82-0.26-7.26c-0.25-1.51,0.39-3.21,0.84-4.77c0.08-0.29,1.5-0.61,1.71-0.38
			c1.31,1.46,2.66,0.6,4.09,0.37c3.72-0.59,7.47-1.02,11.21-1.5c0.49-0.06,1-0.03,1.49,0.01c1.81,0.13,2.84,0.99,2.86,2.37
			c0.02,1.39-0.99,2.28-2.81,2.41c-2.78,0.2-5.56,0.32-8.33,0.57c-2.15,0.2-4.29,0.55-6.67,0.87c0.14,1.79,0.26,3.23,0.37,4.64
			c5.71-0.26,11.15-0.51,16.59-0.75c0.4-0.02,0.79-0.08,1.19-0.08c1.83,0.01,2.86,0.72,3.12,2.12c0.24,1.29-0.55,2.63-2.18,3.13
			c-1.41,0.43-2.92,0.68-4.39,0.71c-3.38,0.09-6.76-0.01-10.15-0.02C477.74,415.03,476.66,415.03,475.05,415.03z"/>
		<path d="M504.02,454.47c0.11,0.84,0.19,1.46,0.3,2.24c1.74-0.21,3.31-0.41,4.88-0.58c3.93-0.44,7.74,0.04,11.38,1.64
			c0.81,0.36,1.62,0.8,2.28,1.38c0.9,0.8,1.14,1.86,0.49,2.96c-0.62,1.04-1.54,1.57-2.76,1.26c-0.67-0.17-1.28-0.53-1.92-0.8
			c-4.28-1.76-8.71-1.53-13.37-1.17c-0.17,3.93,1,7.44,1.38,11.3c0.93-0.08,1.78-0.11,2.62-0.23c3.83-0.55,7.66-1.18,11.5-1.67
			c2.89-0.36,5.67-0.72,7.76-3.18c1.08-1.27,2.37-1.19,3.45-0.31c1.11,0.89,1.3,2.37,0.34,3.74c-1.86,2.65-4.46,4.39-7.61,4.83
			c-5.8,0.81-11.65,1.34-17.48,1.95c-0.69,0.07-1.4,0.01-2.08-0.08c-2.19-0.28-2.85-0.7-3.11-2.91c-0.82-7-1.5-14.03-2.17-21.05
			c-0.09-0.97,0.07-2,0.31-2.95c0.24-0.95,0.92-1.33,2.03-1.27c2.35,0.13,4.72,0.1,7.08,0.04c1.99-0.05,3.97-0.3,5.95-0.36
			c2.39-0.07,3.49,0.66,3.55,2.21c0.06,1.48-1.01,2.48-3.33,2.66c-2.97,0.23-5.96,0.24-8.94,0.33
			C505.78,454.49,505,454.47,504.02,454.47z"/>
		<path d="M393.85,401.88c2.72-0.43,5.46-0.88,8.2-1.27c0.88-0.13,1.8-0.22,2.67-0.09c1.08,0.16,1.93,0.96,1.77,2.04
			c-0.11,0.73-0.78,1.6-1.45,1.98c-0.72,0.4-1.73,0.31-2.61,0.42c-2.65,0.33-5.31,0.65-8.25,1.02c0.11,1.25,0.19,2.28,0.29,3.38
			c3.43-0.31,6.57-0.66,9.72-0.86c1.78-0.11,3.6-0.09,5.36,0.13c1.24,0.16,2.51,0.62,3.62,1.23c1.38,0.75,1.78,2.31,1.2,3.6
			c-0.52,1.14-1.84,1.86-3.25,1.44c-5.23-1.58-10.46-0.19-16.12-0.47c0.41,3.94,0.79,7.52,1.18,11.27c4.7-0.21,9.15-0.4,13.6-0.61
			c1.39-0.07,2.78-0.19,4.17-0.33c1.09-0.11,2.02,0.05,2.37,1.25c0.35,1.19,0.01,2.24-1.08,2.81c-0.77,0.41-1.68,0.72-2.53,0.74
			c-4.37,0.13-8.74,0.18-13.11,0.2c-1.69,0.01-3.38-0.22-5.06-0.17c-2.76,0.08-3.56-0.49-3.74-3.34c-0.32-5.06-0.51-10.13-0.77-15.2
			c-0.12-2.27-0.44-4.54-0.39-6.81c0.03-1.44,0.44-2.92,0.93-4.29c0.39-1.1,1.63-1.03,2.29,0.03c0.2,0.33,0.23,0.76,0.4,1.11
			C393.38,401.34,393.6,401.55,393.85,401.88z"/>
		<path d="M581.62,411.2c-1.65,2.76-2.76,5.59-6.11,6.3c0.24,1.92,0.48,3.58,0.66,5.24c0.18,1.68,0.44,3.36,0.44,5.04
			c0,2.06-0.93,3.02-2.52,2.96c-1.49-0.06-2.27-0.92-2.36-2.85c-0.15-3.38-0.21-6.77-0.32-10.15c-0.16-5.26-0.36-10.52-0.46-15.79
			c-0.01-0.5,0.51-1.01,0.97-1.86c0.79,1.25,1.3,2.05,1.72,2.72c1.24-1.58,2.27-3.32,3.69-4.62c2.61-2.39,5.25-1.38,5.67,2.16
			c0.27,2.25,0.05,4.56,0.05,7c7.66,3.35,11.69,10,14.91,17.33c0.63,1.44,1.4,2.88,1.7,4.4c0.46,2.31-0.67,3.96-2.58,4.34
			c-1.86,0.37-3.49-0.8-3.85-3.2c-1.06-6.94-5.17-12.17-9.51-17.27C583.21,412.38,582.53,411.96,581.62,411.2z M575.53,412.76
			c4.14-4.84,5.82-10.58,4.1-13.49C575.66,401.33,574.11,406.24,575.53,412.76z"/>
		<path d="M460.25,169.65c-0.09,1.57-0.12,3.66-0.37,5.73c-0.19,1.56-0.45,3.17-1.05,4.61c-1.32,3.2-4.53,3.86-6.95,1.36
			c-1.14-1.17-2.12-2.71-2.59-4.26c-1.15-3.78-2.26-7.63-2.84-11.53c-0.6-4.1-0.55-8.3-0.82-12.46c-0.06-0.87-0.23-1.74-0.36-2.6
			c-0.07-0.49-0.26-0.97-0.24-1.45c0.08-1.88-0.08-4.04,2.02-4.9c2-0.82,3.79,0.29,4.98,1.82c1.94,2.5,3.81,5.09,5.35,7.84
			C460.05,158.55,460.39,163.82,460.25,169.65z M454.22,173.28c1.86-8.27,1.28-16.07-4.18-22.94
			C450.13,158.22,451.16,165.93,454.22,173.28z"/>
		<path d="M437.95,414.95c-0.23-5.32-0.47-10.17-0.61-15.02c-0.03-1.17,0.17-2.39,0.49-3.51c0.15-0.53,0.85-0.91,1.3-1.36
			c0.33,0.52,0.95,1.04,0.95,1.56c-0.02,6.93,1.56,13.61,3.08,20.29c0.57,2.5,1.58,4.9,2.5,7.31c0.52,1.35,0.43,2.49-0.47,3.61
			c-1.73,2.15-3.87,1.94-5.15-0.54c-0.23-0.44-0.32-0.98-0.63-1.34c-4.12-4.79-7.24-10.19-10.05-15.81
			c-0.08-0.16-0.3-0.24-0.69-0.55c-0.13,0.75-0.31,1.36-0.32,1.96c-0.06,4.27-0.07,8.55-0.11,12.82c-0.01,0.69,0.04,1.41-0.1,2.08
			c-0.24,1.2-0.99,1.93-2.29,1.9c-1.3-0.03-2.11-0.77-2.17-2c-0.1-1.78-0.05-3.58,0.07-5.36c0.31-4.46,0.69-8.91,1.06-13.36
			c0.16-1.98,0.31-3.96,0.58-5.93c0.1-0.76,0.39-1.57,0.83-2.18c0.28-0.39,1.06-0.7,1.51-0.59c0.42,0.11,1.05,0.9,0.96,1.23
			c-0.5,1.92,0.91,2.9,1.78,4.17c2.14,3.11,4.23,6.26,6.36,9.38C437.09,414.09,437.45,414.4,437.95,414.95z"/>
		<path d="M497.72,143.85c0.65,0.71,1.35,1.27,1.81,1.98c3.92,6.12,7.62,12.37,9.81,19.37c1.54,4.94,1.73,9.97,0.87,15.05
			c-0.36,2.15-1.05,4.17-3.42,4.78c-2.59,0.67-4.7-0.35-6.29-2.41c-2.04-2.64-3.36-5.64-3.94-8.92c-1.28-7.2-1.63-14.41-0.27-21.66
			c0.29-1.53,0.08-3.16,0.09-4.74C496.38,146.16,495.95,144.89,497.72,143.85z M499.85,152.06c-0.41,0.69-0.69,0.93-0.68,1.17
			c0.26,7.07,0.94,14.1,2.91,20.93c0.45,1.57,1.08,3.16,2.86,4.5C506.75,168.97,503.64,160.67,499.85,152.06z"/>
		<path d="M531.02,237.37c0.26-1.61-0.52-2.92-1.24-4.16c-1.81-3.09-3.75-6.1-5.62-9.15c-1.35-2.2-2.78-4.37-4.02-6.63
			c-1.7-3.1-2.04-6.45-1.11-9.84c1.27-4.61,4.7-6.22,8.91-3.98c1.69,0.9,3.01,2.52,4.4,3.91c0.25,0.25,0.11,1.08-0.11,1.5
			c-0.1,0.19-0.96,0.22-1.28,0.01c-1-0.65-1.85-1.51-2.85-2.16c-2.21-1.45-3.9-0.66-4.18,1.98c-0.24,2.21-0.03,4.39,1.05,6.39
			c0.94,1.75,1.9,3.49,2.92,5.2c1.93,3.25,4.02,6.41,5.81,9.74c1.02,1.9,1.79,4,2.29,6.11c0.94,4.05-0.95,6.07-5.11,5.77
			c-2.94-0.21-5.32-1.71-7.33-3.67c-2.66-2.59-4.69-5.67-5.95-9.2c-0.23-0.65-0.42-1.33-0.54-2.02c-0.18-1.09,0.16-2.03,1.24-2.43
			c1.21-0.45,2.03,0.09,2.68,1.2c1.7,2.91,3.39,5.84,5.3,8.61C527.61,236.52,528.47,236.83,531.02,237.37z"/>
		<path d="M531.74,174.49c0.16,0.67,0.59,1.42,0.42,1.99c-0.67,2.28-1.27,4.64-2.38,6.71c-1.74,3.22-5.7,3.85-8.75,1.56
			c-3.01-2.26-5.1-5.29-6.52-8.74c-2.78-6.75-3.83-13.76-2.99-21.02c0.15-1.28,0.37-2.57,0.76-3.79c1.65-5.23,7.05-6.77,11.11-3.1
			c2.83,2.56,3.47,6.13,3.89,9.71c0.03,0.25-0.44,0.57-0.94,1.17c-0.51-0.83-0.99-1.41-1.24-2.08c-0.66-1.77-1.13-3.61-1.82-5.36
			c-0.64-1.62-2.01-2.42-3.47-2.28c-1.68,0.16-2.52,1.35-2.65,2.78c-0.27,3.16-0.59,6.36-0.32,9.5c0.49,5.72,2.43,11.06,5.54,15.89
			c2.46,3.82,3.84,3.74,6.48-0.05c0.62-0.89,1.25-1.77,1.91-2.63C530.86,174.63,531.13,174.64,531.74,174.49z"/>
		<path d="M440.76,154.72c-1.92-0.95-2.37-2.69-3.33-4.02c-1.15-1.6-2.15-3.4-3.58-4.71c-2.33-2.13-3.95-1.46-4.41,1.71
			c-1.32,9.06,0.35,17.63,4.57,25.71c0.67,1.28,1.79,2.32,2.96,3.79c0.46-0.96,0.82-1.51,0.99-2.11c0.38-1.34,0.68-2.7,1.01-4.05
			c0.23-0.96,0.33-2.22,1.72-1.93c1.32,0.28,0.95,1.52,0.9,2.47c-0.1,2.09-0.23,4.17-0.34,6.26c-0.02,0.4-0.02,0.8-0.09,1.19
			c-0.46,2.66-2.3,4.01-4.95,3.36c-1.3-0.32-2.74-0.9-3.64-1.83c-1.57-1.62-3.1-3.44-4.09-5.45c-4.12-8.38-5.28-17.25-3.69-26.44
			c0.27-1.54,0.8-3.11,1.55-4.47c1.53-2.77,4.13-3.55,6.84-1.94c1.58,0.94,3.12,2.24,4.16,3.73c1.52,2.19,2.62,4.68,3.79,7.09
			C441.29,153.44,440.92,154.06,440.76,154.72z"/>
		<path d="M476.97,446.61c1.08,0.17,1.78,0.18,2.41,0.4c5.93,2.02,10.37,5.82,12.95,11.52c1.28,2.84,0.89,5.81-0.48,8.65
			c-2.35,4.87-6,8.61-10.17,11.9c-1.8,1.42-3.93,0.36-4.25-2.12c-0.29-2.26-0.46-4.55-0.5-6.84c-0.13-7.06-0.18-14.12-0.24-21.17
			C476.67,448.29,476.84,447.63,476.97,446.61z M482.34,472.17c3.23-1.43,4.37-4.04,5.8-6.37c1.33-2.18,1.19-4.41-0.15-6.49
			c-1.94-3.02-4.72-5.26-7.69-8.3C481.01,458.41,481.66,465.07,482.34,472.17z"/>
		<path d="M546.63,426.86c-0.41-0.99-0.8-1.96-1.21-2.92c-1.66-3.83-3.41-7.62-4.96-11.48c-1.31-3.27-1.82-6.72-1.38-10.24
			c0.37-3.01,2.12-4.92,4.74-5.44c2.98-0.59,6.34,0.8,7.73,3.21c0.06,0.11-0.12,0.35-0.28,0.79c-0.58-0.2-1.18-0.37-1.75-0.62
			c-0.81-0.36-1.56-0.93-2.4-1.14c-2.6-0.66-4.49,0.67-4.34,3.34c0.13,2.35,0.54,4.77,1.31,6.99c1.33,3.84,3.05,7.54,4.56,11.33
			c0.73,1.84,1.56,3.68,1.97,5.6c0.67,3.09-0.65,4.44-3.8,4.41c-2.14-0.02-3.86-0.95-5.29-2.39c-4.95-5-7.56-10.89-6.61-18.05
			c0.06-0.49,0.07-1.08,0.35-1.42c0.4-0.48,1.07-1.08,1.56-1.03c0.5,0.06,1.25,0.8,1.31,1.32c0.18,1.47,0.05,2.97,0.06,4.46
			c0.06,5.39,3,9.31,6.61,12.87c0.27,0.27,0.66,0.44,1.03,0.59C545.97,427.11,546.18,426.98,546.63,426.86z"/>
		<path d="M553.38,400.04c2.01-0.39,2.62-0.19,3.23,1.64c0.59,1.79,0.93,3.66,1.33,5.5c0.79,3.59,1.52,7.19,2.34,10.78
			c0.25,1.11,0.75,2.16,1.13,3.23c0.23-0.03,0.47-0.06,0.7-0.09c0.2-2.6,0.44-5.2,0.57-7.8c0.14-2.78,0.1-5.57,0.27-8.35
			c0.14-2.27,0.92-4.24,3.49-5.14c0.23,0.42,0.56,0.75,0.55,1.07c-0.2,8.14-0.43,16.29-0.7,24.43c-0.03,0.98-0.26,1.99-0.6,2.91
			c-1.01,2.77-3.61,3.38-5.58,1.16c-1.09-1.23-1.87-2.81-2.47-4.36c-2-5.14-2.73-10.57-3.16-16.03c-0.12-1.49-0.08-2.99-0.25-4.47
			C554.06,403.09,553.7,401.69,553.38,400.04z"/>
		<path d="M507.75,422.09c3.77-0.86,7.14-1.64,10.53-2.39c0.97-0.22,1.95-0.4,2.93-0.51c2.1-0.24,3.38,0.52,3.66,2.13
			c0.24,1.36-0.57,2.39-2.7,2.94c-3.26,0.85-6.58,1.48-9.86,2.28c-1.71,0.42-3.39,0.97-5.05,1.54c-1.53,0.52-2.84,0.15-3.46-1.34
			c-0.41-0.98-0.63-2.11-0.66-3.18c-0.22-7.05-0.38-14.1-0.5-21.15c-0.02-1.28,0.16-2.58,0.41-3.84c0.09-0.48,0.63-0.87,0.97-1.3
			c0.42,0.45,1.14,0.87,1.21,1.37c0.51,3.74,0.91,7.49,1.31,11.24C506.94,413.82,507.32,417.76,507.75,422.09z"/>
		<path d="M428.91,107.5c0.43-2.17,1.62-1.77,2.5-1.83c4.86-0.35,9.72-0.72,14.59-0.96c6.96-0.33,13.92-0.56,20.87-0.81
			c0.99-0.04,2.04-0.1,2.96,0.18c0.61,0.18,1.39,0.91,1.47,1.48c0.13,1-0.77,1.14-1.66,1.14c-5.07,0.01-10.14,0-15.21,0.12
			c-7.26,0.17-14.52,0.46-21.77,0.68C431.5,107.53,430.34,107.5,428.91,107.5z"/>
		<path d="M538.16,107.94c-1.06,0.82-1.62,1.58-2.31,1.73c-0.98,0.21-1.64-0.53-1.68-1.55c-0.04-1.02,0.55-1.81,1.55-1.68
			C536.42,106.52,537.04,107.21,538.16,107.94z"/>
		<path d="M530.01,107.84c-0.92,0.77-1.45,1.57-1.97,1.56c-0.56-0.01-1.43-0.66-1.6-1.21c-0.3-0.97,0.4-1.78,1.4-1.72
			C528.45,106.49,529,107.16,530.01,107.84z"/>
		<path d="M544.87,108.11c-1.01,0.55-1.62,1.15-2.04,1.04c-0.48-0.12-0.96-0.83-1.1-1.38c-0.06-0.22,0.8-0.98,1.2-0.95
			C543.43,106.86,543.91,107.44,544.87,108.11z"/>
		<path class="st0" d="M385,318.88c2.46-13.09,4.86-25.83,7.26-38.59c1.78,2.5,7.41,26,8.3,34.74
			C395.55,316.27,390.51,317.52,385,318.88z"/>
		<path class="st0" d="M501.79,210.62c0.72,3.68,1.44,7.36,2.23,11.38c-1.41,0.32-2.69,0.6-4.43,0.99c0.6-4.42,1.15-8.39,1.69-12.35
			C501.44,210.64,501.62,210.63,501.79,210.62z"/>
		<path class="st0" d="M575.53,412.76c-1.42-6.51,0.12-11.42,4.1-13.49C581.35,402.18,579.67,407.91,575.53,412.76z"/>
		<path class="st0" d="M454.22,173.28c-3.07-7.34-4.1-15.06-4.18-22.94C455.5,157.21,456.09,165.01,454.22,173.28z"/>
		<path class="st0" d="M499.85,152.06c3.79,8.61,6.9,16.91,5.08,26.6c-1.77-1.34-2.41-2.93-2.86-4.5
			c-1.97-6.83-2.65-13.85-2.91-20.93C499.15,153,499.43,152.75,499.85,152.06z"/>
		<path class="st0" d="M482.34,472.17c-0.68-7.09-1.33-13.75-2.04-21.16c2.97,3.04,5.75,5.29,7.69,8.3
			c1.34,2.07,1.48,4.31,0.15,6.49C486.71,468.13,485.57,470.73,482.34,472.17z"/>
	</g>
</g>
</svg>
