<?xml version="1.0" encoding="utf-8"?>
<!-- Generator: Adobe Illustrator 25.4.1, SVG Export Plug-In . SVG Version: 6.00 Build 0)  -->
<svg version="1.1" id="Capa_1" xmlns="http://www.w3.org/2000/svg" xmlns:xlink="http://www.w3.org/1999/xlink" x="0px" y="0px"
	 viewBox="0 0 1366 768" style="enable-background:new 0 0 1366 768;" xml:space="preserve">
<style type="text/css">
	.st0{fill:#EC4646;}
	.st1{fill:none;}
</style>
<path class="st0" d="M847.2,543.4c1.6,7.8,3,14.9,4.5,22.3c5.1-0.6,9.8-1.1,14.4-1.7c15.2-1.7,30.4-2.9,45.8-2.8
	c3.9,0.1,7.8,0.3,11.7,0.7c8.2,0.9,13.9,4.9,15.4,10.7c1.8,6.7-4,13.6-12.6,14.5c-3.6,0.4-7.4-0.3-11.1-0.6
	c-2.2-0.2-4.4-0.9-6.7-0.9c-17,0.1-33.9,0.4-50.9,0.7c-0.6,0-1.2,0.2-2.1,0.4c2.9,19.1,5.8,38.2,8.7,57.4c3.8,0,7.3,0.1,10.8,0
	c12.9-0.4,25.7-0.8,38.6-1.3c6.5-0.2,13-0.5,19.5-0.9c1.5-0.1,3.2-0.6,4.4-1.3c8.4-5.2,23.6-3.3,27.4,7.4c0.6,1.7,1.5,3.4,1.7,5.2
	c0.9,7-6.5,13.9-15.6,14.1c-26.9,0.5-53.8,1.9-80.6-0.8c-2.4-0.2-4.9-0.4-7.3-0.9c-3.8-0.7-7.5-0.9-11.5-0.4
	c-8.1,1-15.4-3.4-16.7-10.1c-1-5.4-1.5-11-1.8-16.4c-1.2-17.7-2.3-35.3-3.3-53c-0.1-2.1-0.8-3.9-2.6-5.6c-3-2.8-3.2-6.1-0.4-8.8
	c1.7-1.7,1.9-3.4,1.8-5.3c-0.3-6.1-0.5-12.3-0.7-18.4c0-2,0.1-4.1,0.5-6.1c0.3-1.7,0.2-3.2-0.8-4.8c-1.5-2.6-0.6-4.3,2.3-5.9
	c1.6-0.9,3.1-1.8,4.7-2.7c0.7-0.4,1.3-0.8,2.1-1c9.8-2.3,19.6-4.7,29.5-6.7c12.3-2.5,24.8-4.5,37.6-4.3c2.3,0,4.6,0.1,6.8,0.6
	c8.3,1.7,13.1,7.2,12.3,13.8c-0.7,6.1-7.1,11-15.1,11.7c-1.1,0.1-2.3,0.2-3.4,0.1c-10.1-0.9-20.2,0.5-30.2,0.8
	c-7.8,0.2-15.6,0.4-23.5,0.6C850,543.4,848.9,543.4,847.2,543.4z"/>
<path class="st0" d="M577.4,550.8c-20.6,1-40.9,2-61.8,3c0.6,3.7,1,6.9,1.6,10.2c2.9,17.4,5.7,34.8,8.6,52.2c1.4,8,2.2,16,5.3,23.8
	c2.3,5.9-2.1,11.9-9.4,13.8c-7.3,1.9-15.4-0.8-18-6.7c-2-4.7-3.5-9.6-4.1-14.6c-1.4-11.1-2.2-22.2-3-33.3
	c-0.9-14.6-1.5-29.2-2.4-43.8c-0.1-1.6-0.7-3.2-1.5-4.7c-1.1-2-1.2-3.8-0.3-5.9c0.7-1.5,1.1-3.2,1-4.8c-0.1-6.4-0.8-12.8-0.7-19.2
	c0.1-3.4,1-6.8,2.2-10.2c0.5-1.6,2.1-3.2,3.6-4.4c1.5-1.3,3.8-1.5,5.9-0.8c2.2,0.7,2.8,2.1,3,4c1.3,8.8,2.9,17.5,4.4,26.3
	c0.1,0.3,0.4,0.7,0.6,1.1c21.1-2.3,42.2-4.6,63.9-7c0.1-1.1,0.1-2.5,0.2-3.8c0.3-5.9,0.5-11.8,1.1-17.6c0.3-2.5,1.3-5,2.4-7.4
	c0.9-2.1,3-3.5,5.9-3.3c2.9,0.2,4.8,1.5,5.4,3.8c1.2,4.5,2.5,9,3.5,13.5c5.7,27,10.7,54.1,14.7,81.3c1.8,12.5,3.8,24.9,6,37.3
	c1.1,6.2,3.4,12.3,4.5,18.5c1.6,9.1-7.5,16.5-18.8,15.9c-7.5-0.4-13.9-4.7-15.6-11c-1.4-5.1-2.5-10.3-2.9-15.6
	c-0.9-10-1.3-19.9-1.9-29.9c-1-19.4-2-38.9-3.1-58.3C577.8,552.6,577.7,552.1,577.4,550.8z"/>
<path class="st0" d="M681.7,258.5c6.2-0.6,11.8-1.4,17.5-1.8c13-0.8,26-1.4,39-2c1.8-0.1,3.6,0.1,5.3,0.5c6.4,1.3,9.8,5.5,8.7,10.4
	c-1,4.5-6.3,7.6-12.5,7.4c-18.1-0.6-36.1-1.2-54.2-1.8c-0.1,0-0.3,0.1-1,0.3c0,7.1,1.1,14.2,1.8,21.7c2.2-0.2,3.8-0.2,5.4-0.4
	c20.4-2.2,40.8-3.4,61.4-3.4c2.9,0,5.9,0.3,8.7,0.9c6.5,1.4,10.4,5.9,9.9,11c-0.4,4.6-4.9,8.3-10.9,9c-1.6,0.2-3.2,0-4.8-0.2
	c-3.4-0.3-6.7-0.9-10.1-1c-10.9-0.3-21.8-0.5-32.8-0.6c-8-0.1-16,0-24.6,0c0.8,17.4,4.1,35.1,8.2,52.8c0.8,0,1.9,0.2,3,0.2
	c17.9-0.7,35.8-1.4,53.7-2.3c3-0.2,5.9-1.1,8.8-2c5.5-1.8,12-0.8,16.8,2.7c4.1,3,5.4,7.5,3.4,11.6c-1.4,2.9-3.9,5.1-7.6,6.1
	c-3.1,0.8-6.3,1.4-9.5,1.6c-14.8,1-29.7,0.6-44.5-0.3c-11-0.6-22-1.7-33-2.7c-2.7-0.2-5.4-1-8.1-1.3c-7.6-0.9-12.2-4.6-13.1-10.7
	c-0.5-3.2-0.8-6.4-1-9.6c-0.9-23.2-1.9-46.4-0.1-69.5c0.8-10.1,1.7-20.2,5.7-29.9c0.1-0.4,0.2-0.8,0.3-1.1c1-2.5,2.7-3.8,4.9-3.6
	c2.7,0.3,3.8,1.8,4.3,3.7C680.8,255.4,681.2,256.8,681.7,258.5z"/>
<path class="st0" d="M482.7,325.6c-10.7,0-21.3,0-32.4,0c-0.9,3.3-1.8,6.6-2.6,10c-1.8,7.9-3.5,15.9-5.2,23.9
	c-0.9,4.4-3.4,7.8-9,9.2c-8.1,2-16.1-2.8-15.8-9.7c0.2-4.3,1.2-8.6,2.2-12.9c1.4-5.8,3.1-11.5,4.7-17.3c0.4-1.5,0.5-3,0.7-4.5
	c0.1-0.5,0-1.1,0.1-1.5c6.6-14.6,9.9-29.9,15.4-44.7c3.9-10.4,7.2-21,13.1-30.9c0.6-1,0.7-2.2,1-3.3c0.7-3.2,2.9-5.4,6.8-6.5
	c3.8-1.1,7.2-0.1,9.8,2.1c2.4,2,4.9,4.2,6.5,6.7c4.2,6.4,8.6,12.7,11.6,19.4c5.8,13.2,10.5,26.6,15.8,39.9c0.9,2.2,2.3,4.2,3.3,6.3
	c0.7,1.5,1.2,3.2,1.5,4.8c0.4,2.1,0.2,4.3,0.8,6.4c4.1,14,7.6,28,13.4,41.7c2.8,6.5-1.3,12.5-9.1,14.5c-7.6,2-15.3-1.1-18.3-7.6
	c-4.5-9.6-7.6-19.6-10.1-29.6c-1.1-4.3-2.1-8.6-3.1-12.8C483.7,327.9,483.2,326.8,482.7,325.6z M453.2,314.2c9-1.8,17.3-3.4,25.5-5
	c-1.5-11.2-10.7-41.5-13.6-44.7C461.2,281,457.3,297.4,453.2,314.2z"/>
<path class="st0" d="M426.6,644.6c0.7-0.8,1.5-1.6,2.1-2.5c6.5-9.2,13.1-18.3,19.5-27.5c1.2-1.7,2-3.8,2.3-5.8
	c1-7.6,13.9-14.9,23.6-12.4c10.8,2.8,16.1,12.7,9.2,19.8c-11.1,11.1-19.3,23.7-29.4,35.3c-4,4.7-8.4,9.1-14.2,12.6
	c-10.5,6.3-22.1,5-29.7-3.6c-6-6.7-9.5-14.2-12.3-22.1c-3.7-10.5-5.6-21.3-6.7-32.2c-2.2-21.1-3.3-42.2-1.9-63.3
	c0.4-6.6,1.1-13.3,2.6-19.8c2.1-8.8,10-13.3,21.3-13.1c11.3,0.2,21.8,2.8,31.7,7c2.5,1.1,4.8,2.7,6.7,4.4c2,1.7,2.2,4,0.7,6.1
	c-1.5,2.1-4,2.6-6.7,2.3c-2.7-0.4-5.4-0.9-8.1-1.5c-5.2-1.2-10.2-2.6-15.5-3.5c-3.6-0.6-7.4-0.5-11-0.8c-2.1,3.8-2.4,7.4-2.3,11
	c0.5,12,1,24.1,2.1,36.1c1.1,11.6,2.7,23.2,4.6,34.8c1.6,9.5,3.6,19,5.9,28.4c0.9,3.6,2.8,7,4.3,10.5
	C425.8,644.6,426.2,644.6,426.6,644.6z"/>
<path class="st0" d="M853.1,360.5c0.4-5.9-1-11.5-3.5-16.8c-3.3-6.8-7.1-13.5-10.8-20.2c-5.4-10-11.1-19.9-16.3-30
	c-4.4-8.5-7-17.3-8-26.4c-0.7-6.6,0.1-13.1,3.1-19.3c1.5-3,3.7-6.1,6.4-8.5c5-4.3,11.3-6.8,19.3-5.5c4.6,0.8,9.4,1.1,14,1.8
	c4.7,0.7,9,2.3,12.6,4.9c1.8,1.2,3,2.7,2.7,4.7c-0.3,2-2.2,3-4.5,2.2c-5.9-2.2-12-1.9-18.2-1.6c-1.8,0.1-3.6,0.4-5.4,0.4
	c-4.1,0-6.3,1.8-7.4,4.6c-2.1,5.5-1.9,11.1-0.4,16.7c1.9,7.2,5,14.1,9,20.7c7.1,11.5,14.4,23,21.4,34.5c4.7,7.6,8.6,15.5,10.5,23.9
	c1.4,5.8,2,11.7,0.7,17.6c-1,4.4-3.8,7.8-8.4,10.4c-11.1,6.2-30.5,7-42.1,0.5c-5.4-3-10.1-6.5-14.1-10.6c-8.5-9-15.3-18.7-20-29.4
	c-2.1-4.9-3.3-9.9-2.6-15.1c0.7-5.3,4.2-9.1,10.7-10.9c4-1.1,7.8-0.7,10.8,1.8c3,2.4,3.8,5.4,1.9,8.5c-1,1.6-1,3.2-0.4,4.8
	c4.6,12.8,12.6,24.1,24,33.9C843.2,362.4,846.6,362.7,853.1,360.5z"/>
<path class="st0" d="M750.2,644.1c8.6-1.7,16.4-3.4,24.3-4.9c8.4-1.6,17-2.4,25.7-2.1c8,0.2,14.4,4.8,15.4,10.8
	c1.1,6.6-3.6,12.4-11.6,14.2c-1.2,0.3-2.6,0.4-3.8,0.5c-13.1,1.1-26.2,2.3-39.3,3.4c-8.3,0.7-16.5,1.4-24.8,2
	c-4,0.3-7.7-0.9-11.2-2.3c-2.4-1-4.5-2.6-4.3-4.8c0.4-4.2-1.2-8.1-2-12.1c-2.7-14.6-2.9-29.4-2.4-44.1c0.3-10.9,0.6-21.8,1.6-32.6
	c1.1-12.3,2.9-24.5,4.4-36.7c0.5-3.7,1-7.4,1.6-11.1c0.2-1.1,0.4-2.3,0.7-3.4c0.8-2.5,2.6-3.7,5.4-3.7c2.8,0,4.8,1.1,5.4,3.6
	c0.7,3,1.2,6.1,1.6,9.1c2,14.9,4.1,29.8,5.8,44.7c1,8.3,1.4,16.6,2.2,24.9c1.3,13.1,2.7,26.3,4.1,39.4
	C749.1,640.6,749.7,642.2,750.2,644.1z"/>
<path class="st0" d="M590.5,317.4c0.2-1.8,0.4-2.6,0.4-3.4c0.6-12.9,0.9-25.9,1.9-38.8c0.9-10.3,2.7-20.6,4.2-30.9
	c0.5-3.5,2.4-5.1,5.4-5c2.8,0.1,4.6,1.6,5,5.2c2,15.4,3.9,30.8,5.7,46.2c1.8,15.4,3.4,30.9,5.2,46.3c0.2,2,1.5,3.9,2.2,5.8
	c0.5,1.5,1.4,3,1.3,4.4c-0.3,4.9,0,10-3.5,14.5c-0.8,1.1-0.2,2.9,0.1,4.4c1.2,4.9-1.2,9.5-6.4,11.9c-6.2,2.9-14,1.5-18.1-3.3
	c-1.6-1.9-3-4-4.1-6.1c-12.3-24.4-24.9-48.7-36.7-73.2c-4.7-9.8-7.9-20-11.7-30.1c-0.7-2-1-4-1.4-6c-0.6-3.4,0.9-5.5,3.9-6.2
	c2.9-0.7,5.4,0.3,7.3,3.3c2.7,4,5.3,8,7.8,12c9.5,15,19,30,28.5,45.1C588.4,314.5,589.2,315.6,590.5,317.4z"/>
<path class="st0" d="M650.2,585.4c0.4-12.1,0-22.3,1.1-32.3c0.9-8,3.3-15.9,5.3-23.8c0.6-2.6,2.4-3.6,4.9-3.6c2.5,0,4.2,1.1,5,3.6
	c3.5,10.5,6.4,21.2,8,32c2.4,16.9,5,33.8,7.5,50.8c1,6.7,2,13.5,3.1,20.2c0.1,0.8,0,1.6,0.5,2.3c4.4,6.8,3.4,14.3,3.5,21.5
	c0.1,6.4-6.8,11.5-15,12c-8,0.5-15.7-3.9-17-10.2c-1-4.4-1.3-8.9-1.7-13.4C653.5,624,651.8,603.7,650.2,585.4z"/>
<path class="st0" d="M657.1,68.2c3.9,2.7,4.9,6.3,6.2,9.5c1.3,3.1,2.4,6.3,3.6,9.6c2.2-0.8,4.3-1.5,6.3-2.4c2.3-1,4,0.3,5.6,1.7
	c2-0.5,3.9-1,5.8-1.3c1.7-0.2,3.5,0,5.4,0.7c-0.7,0.5-1.3,1.1-2,1.5c-2.4,1.3-4.9,2.6-7.4,3.9c-4.8,2.5-7.5,7-9.3,12.2
	c-0.2,0.5-0.3,1.1-0.5,1.7c-1.5,7.3-5.5,11.9-12.3,13.5c-2,0.5-4,1.5-5.7,2.7c-1.6,1.1-2.9,2.7-4.2,4.3c-0.9,1.2-1.4,2.8-2.3,4
	c-2.2,3.3-3.1,3.3-5.6-0.2c-1.8,1.8-3.6,3.8-5.4,5.5c-1.8,1.7-3.8,3.3-5.7,4.9c-0.3-0.2-0.6-0.5-0.8-0.7c0.3-0.9,0.5-2.1,1-2.7
	c3.1-3.8,6.1-7.6,9.4-11c2.1-2.2,3.9-4.4,5-7.6c1.6-4.6,3.8-8.9,5.8-13.6c-7.8-5.2-16-10.4-17.8-21.8c-0.8-5.3-3-10.5-0.8-16.8
	c7.6,7.5,15,14.7,22.6,22.2c0.2-1,0.5-1.5,0.4-1.7C651.5,79.6,655.8,74.6,657.1,68.2z"/>
<path class="st0" d="M717.3,194.6c8.9-1.3,16.8-3.9,25.7-2.8c1.4-4.9,2.8-9.9,4.1-14.8c2-7.5,4-15,6-22.5c0.3-1,0.5-2.1,1.1-2.9
	c0.4-0.6,1.4-1.1,2.2-1.1c0.5-0.1,1.6,0.6,1.7,1.1c1.3,4.2,6,7,7,11.5c0.9,4.3,3,8.4,4.4,12.6c0.5,1.5,1.4,2.3,3.3,2.9
	c3.1,1.1,4,3.2,2,5.3c-1.5,1.6-1.1,2.8-0.3,4.2c1.5,2.8,3.1,5.6,4.5,8.5c1.2,2.4,0.3,4.6-2.2,5.7c-2.7,1.1-5.8,0.3-7.5-1.9
	c-0.7-0.9-1.2-1.8-1.6-2.8c-1-2.4-1.9-4.9-2.8-7.3c-0.5-1.2-0.9-2.4-1.4-3.7c-3.4,0-6.6,0-10.3,0c-0.5,3.2-0.9,6.4-1.3,9.5
	c-0.5,4-3.5,5.2-8.1,3.2c-0.8-0.3-1.8-0.7-2.6-0.6c-7.3,0.8-14.5,1.6-21.7,2.6c-1.2,0.2-2.3,0.9-3.3,1.4c-3.5,1.8-6.7,1-8.1-2.1
	c-0.5-1.2-0.9-2.5-0.9-3.7c0.2-14.6,0.4-29.2,0.7-43.8c0-1.4-0.4-3.5,2.3-3.7c3-0.2,2.9,2.1,3.2,3.6c0.9,4.8,1.7,9.6,2.1,14.5
	c0.6,7.5,0.9,15.1,1.4,22.6C717,191.3,717.2,192.8,717.3,194.6z M757.8,164.5c-0.3,0-0.6,0-0.8,0c-0.9,5.1-1.8,10.2-2.8,15.9
	c2.8-0.5,4.9-0.9,7.3-1.3C760.2,173.9,759,169.2,757.8,164.5z"/>
<path class="st0" d="M637.1,197c-0.8,0.7-1.2,1.2-1.8,1.6c-3.8,2.5-8.3,1.3-9.1-2.5c-0.5-2.7-0.8-5.3-1-8
	c-0.4-8.4-0.7-16.9-1.1-25.4c-0.1-1.4-0.5-2.7-0.7-4.1c-0.1-0.7-0.1-1.5,0.1-2.2c0.4-1.5,1.1-2.9,1.4-4.4c0.3-1.3,0.3-2.8,2.5-2.8
	c1.9,0,2.2,1.3,2.3,2.5c0,0.5,0.2,1,0.4,2c1.8-0.4,3.5-0.7,5.1-1.1c5.3-1.3,10.7-2.3,16.3-2.2c2.3,0.1,4.7,0.3,6.1,2
	c0.7,0.9,1.1,2.2,0.9,3.2c-0.3,1.4-1.9,2-3.8,1.9c-7.5-0.5-14.5,1.7-21.7,2.4c-2.2,0.2-2.7,1.2-1.8,3.2c4-0.4,8.1-0.8,12.2-1.2
	c3.9-0.4,7.7-0.8,11.6-1.1c1.3-0.1,2.6-0.1,3.9,0.1c2.1,0.3,3.6,1.2,3.9,3s-0.5,3.2-2.5,3.7c-2.6,0.7-5.3,1.3-8,1.5
	c-5.2,0.3-10.4,0.2-15.6,0.2c-1.4,0-2.9,0-4.9,0c0.2,1.7,0.4,3,0.6,4.3c0.9,4.2,0.5,8.6,3.5,12.6c0.9,1.3,0.6,3.2,0.9,5.3
	c6-0.7,11.7-1.4,17.5-2c5.2-0.5,10.4-0.8,15.6-1.1c1.8-0.1,3.6,0.2,5.3,0.5c2.1,0.4,3.3,1.7,3.4,3.4c0.1,1.7-0.9,3-2.8,3.7
	c-0.9,0.3-1.8,0.7-2.8,0.7C661.2,196.8,649.4,198.7,637.1,197z"/>
<path class="st0" d="M514.5,164.5c1.1,7.9,2.2,15.7,3.2,23.6c0.3,2.2,0.5,4.3,0.5,6.5c0,2.4-2,4.1-4.6,4.2c-2.5,0.2-4.9-1.2-5.2-3.7
	c-0.7-4.8-1.2-9.7-1.4-14.5c-0.2-8.3,0-16.6,0.1-25c0-0.4,0-0.8,0.1-1.1c0.2-1.2-0.1-2.8,2.1-3c2.1-0.2,2.6,1.1,3.1,2.4
	c0.2,0.6,0.6,1.2,1.2,1.6c7,4.7,12.2,10.6,17.5,16.4c0.3,0.4,0.8,0.7,1.9,1.6c-0.2-9.2-3.4-17.4-2.3-25.9c2.7-0.1,2.9,1.2,3.3,2.2
	c2.2,5.9,4.4,11.8,6.5,17.7c2.8,8.3,5.5,16.6,8.2,24.9c0.3,1,0.8,2,0.8,3c0.2,1.9-1,3.3-3.1,4c-2.2,0.8-4.6,0.6-6.3-0.9
	c-1.3-1.1-2.3-2.5-3.2-3.8c-6.2-8.9-12.3-17.7-18.5-26.6c-0.9-1.3-1.9-2.6-2.8-3.9C515.2,164.3,514.9,164.4,514.5,164.5z"/>
<path class="st0" d="M556.4,445.5c0.8,4.6,1.4,8.6,2.1,13.1c7-0.5,13.4-1,19.9-1.6c1.8-0.1,3.6-0.3,5.3-0.5c2.6-0.2,5.1-0.3,7.3-1.8
	c1.5-1,3.6-1,4.9,0.1c0.9,0.8,1.5,2.3,1.3,3.4c-0.4,2.7-2.9,4.4-6.2,4.8c-10.8,1.1-21.6,2.5-32.6,1.1c-3.5-0.5-6.1-1.2-6.5-4.6
	c-0.4-3.6-1.4-7.1-2.2-10.6c-0.4-1.6-0.9-3.2-1.3-4.8c-0.1-0.6-0.3-1.3-0.1-1.9c1.4-3.2,0.2-6.2-0.4-9.3c-0.4-1.9,0.6-4.1,1.4-6.1
	c0.1-0.4,2.5-0.8,2.8-0.5c2.1,1.9,4.4,0.8,6.7,0.5c6.1-0.8,12.2-1.3,18.4-1.9c0.8-0.1,1.6,0,2.4,0c3,0.2,4.7,1.3,4.7,3
	c0,1.8-1.6,2.9-4.6,3.1c-4.6,0.3-9.1,0.4-13.6,0.7c-3.5,0.3-7,0.7-10.9,1.1c0.2,2.3,0.4,4.2,0.6,6c9.4-0.3,18.3-0.7,27.2-1
	c0.7,0,1.3-0.1,1.9-0.1c3,0,4.7,0.9,5.1,2.7c0.4,1.7-0.9,3.4-3.6,4c-2.3,0.6-4.8,0.9-7.2,0.9c-5.5,0.1-11.1,0-16.6,0
	C560.8,445.5,559.1,445.5,556.4,445.5z"/>
<path class="st0" d="M839.6,434.7c0.2,1.1,0.3,1.9,0.5,2.9c2.8-0.3,5.4-0.5,8-0.7c6.4-0.6,12.7,0.1,18.6,2.1c1.3,0.5,2.7,1,3.7,1.8
	c1.5,1,1.9,2.4,0.8,3.8c-1,1.3-2.5,2-4.5,1.6c-1.1-0.2-2.1-0.7-3.1-1c-7-2.3-14.3-2-21.9-1.5c-0.3,5.1,1.6,9.6,2.3,14.5
	c1.5-0.1,2.9-0.1,4.3-0.3c6.3-0.7,12.5-1.5,18.8-2.1c4.7-0.5,9.3-0.9,12.7-4.1c1.8-1.6,3.9-1.5,5.6-0.4c1.8,1.1,2.1,3,0.6,4.8
	c-3,3.4-7.3,5.6-12.5,6.2c-9.5,1-19.1,1.7-28.6,2.5c-1.1,0.1-2.3,0-3.4-0.1c-3.6-0.4-4.7-0.9-5.1-3.7c-1.3-9-2.5-18.1-3.6-27.1
	c-0.1-1.2,0.1-2.6,0.5-3.8s1.5-1.7,3.3-1.6c3.8,0.2,7.7,0.1,11.6,0.1c3.3-0.1,6.5-0.4,9.7-0.5c3.9-0.1,5.7,0.8,5.8,2.8
	c0.1,1.9-1.7,3.2-5.5,3.4c-4.9,0.3-9.8,0.3-14.6,0.4C842.4,434.7,841.2,434.7,839.6,434.7z"/>
<path class="st0" d="M432.9,428.9c4.5-0.6,8.9-1.1,13.4-1.6c1.4-0.2,2.9-0.3,4.4-0.1c1.8,0.2,3.2,1.2,2.9,2.6
	c-0.2,0.9-1.3,2.1-2.4,2.5c-1.2,0.5-2.8,0.4-4.3,0.5c-4.3,0.4-8.7,0.8-13.5,1.3c0.2,1.6,0.3,2.9,0.5,4.3c5.6-0.4,10.8-0.8,15.9-1.1
	c2.9-0.1,5.9-0.1,8.8,0.2c2,0.2,4.1,0.8,5.9,1.6c2.3,1,2.9,3,2,4.6c-0.9,1.5-3,2.4-5.3,1.9c-8.6-2-17.1-0.2-26.4-0.6
	c0.7,5.1,1.3,9.7,1.9,14.5c7.7-0.3,15-0.5,22.3-0.8c2.3-0.1,4.6-0.2,6.8-0.4c1.8-0.1,3.3,0.1,3.9,1.6c0.6,1.5,0,2.9-1.8,3.6
	c-1.3,0.5-2.8,0.9-4.1,1c-7.2,0.2-14.3,0.2-21.5,0.3c-2.8,0-5.5-0.3-8.3-0.2c-4.5,0.1-5.8-0.6-6.1-4.3c-0.5-6.5-0.8-13-1.3-19.6
	c-0.2-2.9-0.7-5.8-0.6-8.8c0-1.9,0.7-3.8,1.5-5.5c0.6-1.4,2.7-1.3,3.8,0c0.3,0.4,0.4,1,0.7,1.4C432.1,428.2,432.5,428.5,432.9,428.9
	z"/>
<path class="st0" d="M740.4,436.1c-2.7,3.6-4.5,7.2-10,8.1c0.4,2.5,0.8,4.6,1.1,6.7c0.3,2.2,0.7,4.3,0.7,6.5c0,2.7-1.5,3.9-4.1,3.8
	c-2.4-0.1-3.7-1.2-3.9-3.7c-0.2-4.3-0.3-8.7-0.5-13.1c-0.3-6.8-0.6-13.5-0.8-20.3c0-0.6,0.8-1.3,1.6-2.4c1.3,1.6,2.1,2.6,2.8,3.5
	c2-2,3.7-4.3,6-5.9c4.3-3.1,8.6-1.8,9.3,2.8c0.4,2.9,0.1,5.9,0.1,9c12.5,4.3,19.1,12.9,24.4,22.3c1,1.9,2.3,3.7,2.8,5.7
	c0.8,3-1.1,5.1-4.2,5.6c-3,0.5-5.7-1-6.3-4.1c-1.7-8.9-8.5-15.7-15.6-22.2C743,437.6,741.9,437.1,740.4,436.1z M730.4,438.1
	c6.8-6.2,9.5-13.6,6.7-17.4C730.6,423.4,728.1,429.7,730.4,438.1z"/>
<path class="st0" d="M501.1,182.9c-0.1,2-0.2,4.7-0.6,7.4c-0.3,2-0.7,4.1-1.7,5.9c-2.2,4.1-7.4,5-11.4,1.8c-1.9-1.5-3.5-3.5-4.2-5.5
	c-1.9-4.9-3.7-9.8-4.7-14.8c-1-5.3-0.9-10.7-1.3-16c-0.1-1.1-0.4-2.2-0.6-3.3c-0.1-0.6-0.4-1.2-0.4-1.9c0.1-2.4-0.1-5.2,3.3-6.3
	c3.3-1.1,6.2,0.4,8.2,2.3c3.2,3.2,6.2,6.5,8.8,10.1C500.8,168.6,501.4,175.4,501.1,182.9z M491.3,187.6c3-10.6,2.1-20.7-6.8-29.5
	C484.6,168.2,486.3,178.1,491.3,187.6z"/>
<path class="st0" d="M505.1,446.3c-0.4-6.8-0.8-13.1-1-19.3c0-1.5,0.3-3.1,0.8-4.5c0.2-0.7,1.4-1.2,2.1-1.8c0.5,0.7,1.6,1.3,1.6,2
	c0,8.9,2.6,17.5,5,26.1c0.9,3.2,2.6,6.3,4.1,9.4c0.9,1.7,0.7,3.2-0.8,4.6c-2.8,2.8-6.3,2.5-8.4-0.7c-0.4-0.6-0.5-1.3-1-1.7
	c-6.7-6.2-11.9-13.1-16.5-20.3c-0.1-0.2-0.5-0.3-1.1-0.7c-0.2,1-0.5,1.8-0.5,2.5c-0.1,5.5-0.1,11-0.2,16.5c0,0.9,0.1,1.8-0.2,2.7
	c-0.4,1.5-1.6,2.5-3.8,2.4c-2.1,0-3.5-1-3.6-2.6c-0.2-2.3-0.1-4.6,0.1-6.9c0.5-5.7,1.1-11.5,1.7-17.2c0.3-2.5,0.5-5.1,0.9-7.6
	c0.2-1,0.6-2,1.4-2.8c0.5-0.5,1.7-0.9,2.5-0.8c0.7,0.1,1.7,1.2,1.6,1.6c-0.8,2.5,1.5,3.7,2.9,5.4c3.5,4,6.9,8.1,10.4,12.1
	C503.7,445.2,504.3,445.6,505.1,446.3z"/>
<path class="st0" d="M562.5,146.7c1.1,0.9,2.2,1.6,3,2.5c6.4,7.9,12.5,15.9,16.1,24.9c2.5,6.4,2.8,12.8,1.4,19.4
	c-0.6,2.8-1.7,5.4-5.6,6.2c-4.2,0.9-7.7-0.5-10.3-3.1c-3.3-3.4-5.5-7.3-6.5-11.5c-2.1-9.3-2.7-18.5-0.4-27.9c0.5-2,0.1-4.1,0.1-6.1
	C560.3,149.6,559.6,148,562.5,146.7z M566,157.2c-0.7,0.9-1.1,1.2-1.1,1.5c0.4,9.1,1.5,18.1,4.8,26.9c0.7,2,1.8,4.1,4.7,5.8
	C577.3,179,572.2,168.3,566,157.2z"/>
<path class="st0" d="M805.7,197.3c0.4-2.1-0.9-3.8-2-5.4c-3-4-6.1-7.8-9.2-11.8c-2.2-2.8-4.6-5.6-6.6-8.5c-2.8-4-3.3-8.3-1.8-12.7
	c2.1-5.9,7.7-8,14.6-5.1c2.8,1.2,4.9,3.2,7.2,5c0.4,0.3,0.2,1.4-0.2,1.9c-0.2,0.2-1.6,0.3-2.1,0c-1.6-0.8-3-1.9-4.7-2.8
	c-3.6-1.9-6.4-0.8-6.8,2.5c-0.4,2.8,0,5.6,1.7,8.2c1.5,2.3,3.1,4.5,4.8,6.7c3.2,4.2,6.6,8.2,9.5,12.5c1.7,2.4,2.9,5.1,3.8,7.9
	c1.5,5.2-1.6,7.8-8.4,7.4c-4.8-0.3-8.7-2.2-12-4.7c-4.4-3.3-7.7-7.3-9.7-11.8c-0.4-0.8-0.7-1.7-0.9-2.6c-0.3-1.4,0.3-2.6,2-3.1
	c2-0.6,3.3,0.1,4.4,1.5c2.8,3.7,5.6,7.5,8.7,11.1C800.1,196.2,801.5,196.6,805.7,197.3z"/>
<path class="st0" d="M618.2,185c0.3,0.9,1,1.8,0.7,2.6c-1.1,2.9-2.1,6-3.9,8.6c-2.8,4.1-9.3,5-14.3,2c-4.9-2.9-8.4-6.8-10.7-11.2
	c-4.6-8.7-6.3-17.7-4.9-27c0.2-1.6,0.6-3.3,1.2-4.9c2.7-6.7,11.5-8.7,18.2-4c4.6,3.3,5.7,7.9,6.4,12.5c0,0.3-0.7,0.7-1.5,1.5
	c-0.8-1.1-1.6-1.8-2-2.7c-1.1-2.3-1.9-4.6-3-6.9c-1-2.1-3.3-3.1-5.7-2.9c-2.8,0.2-4.1,1.7-4.3,3.6c-0.4,4.1-1,8.2-0.5,12.2
	c0.8,7.4,4,14.2,9.1,20.4c4,4.9,6.3,4.8,10.6-0.1c1-1.1,2-2.3,3.1-3.4C616.8,185.1,617.2,185.2,618.2,185z"/>
<path class="st0" d="M469.2,164.1c-3.1-1.2-3.9-3.5-5.5-5.2c-1.9-2.1-3.5-4.4-5.9-6.1c-3.8-2.7-6.5-1.9-7.2,2.2
	c-2.2,11.7,0.6,22.7,7.5,33.1c1.1,1.6,2.9,3,4.8,4.9c0.8-1.2,1.3-1.9,1.6-2.7c0.6-1.7,1.1-3.5,1.7-5.2c0.4-1.2,0.5-2.9,2.8-2.5
	c2.2,0.4,1.6,2,1.5,3.2c-0.2,2.7-0.4,5.4-0.6,8.1c0,0.5,0,1-0.1,1.5c-0.8,3.4-3.8,5.2-8.1,4.3c-2.1-0.4-4.5-1.2-6-2.4
	c-2.6-2.1-5.1-4.4-6.7-7c-6.7-10.8-8.6-22.2-6-34c0.4-2,1.3-4,2.5-5.8c2.5-3.6,6.8-4.6,11.2-2.5c2.6,1.2,5.1,2.9,6.8,4.8
	c2.5,2.8,4.3,6,6.2,9.1C470.1,162.5,469.5,163.3,469.2,164.1z"/>
<path class="st0" d="M795.3,422.2c1.8,0.2,2.9,0.2,3.9,0.5c9.7,2.6,17,7.5,21.2,14.8c2.1,3.7,1.5,7.5-0.8,11.1
	c-3.8,6.3-9.8,11.1-16.7,15.3c-2.9,1.8-6.4,0.5-7-2.7c-0.5-2.9-0.8-5.9-0.8-8.8c-0.2-9.1-0.3-18.2-0.4-27.2
	C794.8,424.3,795,423.5,795.3,422.2z M804,455c5.3-1.8,7.2-5.2,9.5-8.2c2.2-2.8,1.9-5.7-0.2-8.4c-3.2-3.9-7.7-6.8-12.6-10.7
	C801.9,437.3,802.9,445.9,804,455z"/>
<path class="st0" d="M683.1,459.8c-0.7-1.3-1.3-2.5-2-3.8c-2.7-4.9-5.6-9.8-8.1-14.8c-2.1-4.2-3-8.6-2.3-13.2c0.6-3.9,3.5-6.3,7.8-7
	c4.9-0.8,10.4,1,12.7,4.1c0.1,0.1-0.2,0.5-0.5,1c-0.9-0.3-1.9-0.5-2.9-0.8c-1.3-0.5-2.6-1.2-3.9-1.5c-4.3-0.8-7.4,0.9-7.1,4.3
	c0.2,3,0.9,6.1,2.1,9c2.2,4.9,5,9.7,7.5,14.6c1.2,2.4,2.6,4.7,3.2,7.2c1.1,4-1.1,5.7-6.2,5.7c-3.5,0-6.3-1.2-8.7-3.1
	c-8.1-6.4-12.4-14-10.8-23.2c0.1-0.6,0.1-1.4,0.6-1.8c0.7-0.6,1.8-1.4,2.6-1.3c0.8,0.1,2,1,2.1,1.7c0.3,1.9,0.1,3.8,0.1,5.7
	c0.1,6.9,4.9,12,10.8,16.6c0.4,0.3,1.1,0.6,1.7,0.8C682,460.2,682.4,460,683.1,459.8z"/>
<path class="st0" d="M694.1,425.3c3.3-0.5,4.3-0.2,5.3,2.1c1,2.3,1.5,4.7,2.2,7.1c1.3,4.6,2.5,9.3,3.8,13.9c0.4,1.4,1.2,2.8,1.9,4.2
	c0.4,0,0.8-0.1,1.1-0.1c0.3-3.3,0.7-6.7,0.9-10c0.2-3.6,0.2-7.2,0.4-10.7c0.2-2.9,1.5-5.5,5.7-6.6c0.4,0.5,0.9,1,0.9,1.4
	c-0.3,10.5-0.7,21-1.1,31.4c0,1.3-0.4,2.6-1,3.7c-1.7,3.6-5.9,4.3-9.1,1.5c-1.8-1.6-3.1-3.6-4-5.6c-3.3-6.6-4.5-13.6-5.2-20.6
	c-0.2-1.9-0.1-3.8-0.4-5.8C695.3,429.2,694.7,427.4,694.1,425.3z"/>
<path class="st0" d="M610,456.8c6.2-1.1,11.7-2.1,17.2-3.1c1.6-0.3,3.2-0.5,4.8-0.7c3.4-0.3,5.5,0.7,6,2.7c0.4,1.8-0.9,3.1-4.4,3.8
	c-5.3,1.1-10.8,1.9-16.1,2.9c-2.8,0.5-5.6,1.2-8.3,2c-2.5,0.7-4.7,0.2-5.7-1.7c-0.7-1.3-1-2.7-1.1-4.1c-0.4-9.1-0.6-18.1-0.8-27.2
	c0-1.6,0.3-3.3,0.7-4.9c0.1-0.6,1-1.1,1.6-1.7c0.7,0.6,1.9,1.1,2,1.8c0.8,4.8,1.5,9.6,2.1,14.5C608.6,446.1,609.3,451.2,610,456.8z"
	/>
<path class="st0" d="M532.9,103.1c0.7-2.8,2.7-2.3,4.1-2.4c8-0.5,15.9-0.9,23.9-1.2c11.4-0.4,22.8-0.7,34.2-1
	c1.6-0.1,3.3-0.1,4.8,0.2c1,0.2,2.3,1.2,2.4,1.9c0.2,1.3-1.3,1.5-2.7,1.5c-8.3,0-16.6,0-24.9,0.2c-11.9,0.2-23.8,0.6-35.7,0.9
	C537.2,103.1,535.3,103.1,532.9,103.1z"/>
<path class="st0" d="M711.8,100.6c-1.7,1.1-2.7,2-3.8,2.2c-1.6,0.3-2.7-0.7-2.8-2c-0.1-1.3,0.9-2.3,2.5-2.2
	C709,98.8,710,99.6,711.8,100.6z"/>
<path class="st0" d="M698.5,100.6c-1.5,1-2.4,2-3.2,2c-0.9,0-2.3-0.8-2.6-1.6c-0.5-1.2,0.7-2.3,2.3-2.2
	C695.9,98.9,696.8,99.8,698.5,100.6z"/>
<path class="st0" d="M722.8,100.9c-1.7,0.7-2.7,1.5-3.3,1.3c-0.8-0.2-1.6-1.1-1.8-1.8c-0.1-0.3,1.3-1.3,2-1.2
	C720.5,99.3,721.2,100,722.8,100.9z"/>
<path class="st1" d="M453.2,379.6c4-16.8,8-33.2,11.9-49.7c2.9,3.2,12.1,33.5,13.6,44.7C470.5,376.3,462.3,377.9,453.2,379.6z"/>
<path class="st1" d="M785.4,184c1.2,4.7,2.4,9.5,3.7,14.6c-2.3,0.4-4.4,0.8-7.3,1.3c1-5.7,1.9-10.8,2.8-15.9
	C784.8,184,785.1,184,785.4,184z"/>
<path class="st1" d="M730.4,438.1c-2.3-8.4,0.2-14.7,6.7-17.4C740,424.5,737.2,431.8,730.4,438.1z"/>
<path class="st1" d="M491.3,199.9c-5-9.4-6.7-19.4-6.8-29.5C493.4,179.2,494.3,189.3,491.3,199.9z"/>
<path class="st1" d="M566,165.7c6.2,11.1,11.3,21.8,8.3,34.2c-2.9-1.7-3.9-3.8-4.7-5.8c-3.2-8.8-4.3-17.8-4.8-26.9
	C564.8,166.9,565.3,166.6,566,165.7z"/>
<path class="st1" d="M804,464.8c-1.1-9.1-2.2-17.7-3.3-27.2c4.9,3.9,9.4,6.8,12.6,10.7c2.2,2.7,2.4,5.5,0.2,8.4
	C811.2,459.6,809.3,462.9,804,464.8z"/>
</svg>
