<?xml version="1.0" encoding="utf-8"?>
<!-- Generator: Adobe Illustrator 25.4.1, SVG Export Plug-In . SVG Version: 6.00 Build 0)  -->
<svg version="1.1" id="Capa_1" xmlns="http://www.w3.org/2000/svg" xmlns:xlink="http://www.w3.org/1999/xlink" x="0px" y="0px"
	 viewBox="0 0 1366 768" style="enable-background:new 0 0 1366 768;" xml:space="preserve">
<style type="text/css">
	.st0{fill:#EC4646;}
	.st1{fill:none;}
</style>
<path class="st0" d="M776.6,543.4c1.3,7.8,2.5,14.9,3.8,22.3c4.4-0.6,8.3-1.1,12.2-1.7c12.8-1.7,25.7-2.9,38.7-2.8
	c3.3,0.1,6.6,0.3,9.9,0.7c7,0.9,11.7,4.9,13,10.7c1.5,6.7-3.4,13.6-10.6,14.5c-3,0.4-6.3-0.3-9.4-0.6c-1.9-0.2-3.8-0.9-5.6-0.9
	c-14.4,0.1-28.7,0.4-43.1,0.7c-0.5,0-1,0.2-1.8,0.4c2.5,19.1,4.9,38.2,7.4,57.4c3.2,0,6.2,0.1,9.2,0c10.9-0.4,21.8-0.8,32.7-1.3
	c5.5-0.2,11-0.5,16.5-0.9c1.3-0.1,2.7-0.6,3.7-1.3c7.1-5.2,19.9-3.3,23.2,7.4c0.5,1.7,1.3,3.4,1.5,5.2c0.8,7-5.5,13.9-13.2,14.1
	c-22.7,0.5-45.5,1.9-68.2-0.8c-2.1-0.2-4.1-0.4-6.1-0.9c-3.2-0.7-6.4-0.9-9.8-0.4c-6.9,1-13-3.4-14.1-10.1c-0.9-5.4-1.2-11-1.6-16.4
	c-1-17.7-1.9-35.3-2.8-53c-0.1-2.1-0.6-3.9-2.2-5.6c-2.5-2.8-2.7-6.1-0.3-8.8c1.5-1.7,1.6-3.4,1.6-5.3c-0.2-6.1-0.4-12.3-0.6-18.4
	c0-2,0.1-4.1,0.4-6.1c0.2-1.7,0.2-3.2-0.7-4.8c-1.3-2.6-0.5-4.3,2-5.9c1.3-0.9,2.6-1.8,4-2.7c0.6-0.4,1.1-0.8,1.8-1
	c8.3-2.3,16.6-4.7,24.9-6.7c10.4-2.5,21-4.5,31.8-4.3c1.9,0,3.9,0.1,5.7,0.6c7,1.7,11.1,7.2,10.4,13.8c-0.6,6.1-6,11-12.8,11.7
	c-1,0.1-1.9,0.2-2.9,0.1c-8.6-0.9-17.1,0.5-25.6,0.8c-6.6,0.2-13.2,0.4-19.9,0.6C779,543.4,778.1,543.4,776.6,543.4z"/>
<path class="st0" d="M548.3,550.8c-17.4,1-34.6,2-52.3,3c0.5,3.7,0.9,6.9,1.3,10.2c2.4,17.4,4.8,34.8,7.3,52.2
	c1.2,8,1.9,16,4.5,23.8c2,5.9-1.8,11.9-7.9,13.8c-6.2,1.9-13-0.8-15.2-6.7c-1.7-4.7-3-9.6-3.5-14.6c-1.2-11.1-1.9-22.2-2.5-33.3
	c-0.8-14.6-1.3-29.2-2-43.8c-0.1-1.6-0.6-3.2-1.3-4.7c-0.9-2-1.1-3.8-0.2-5.9c0.6-1.5,0.9-3.2,0.9-4.8c-0.1-6.4-0.7-12.8-0.6-19.2
	c0.1-3.4,0.9-6.8,1.8-10.2c0.5-1.6,1.8-3.2,3.1-4.4c1.3-1.3,3.2-1.5,5-0.8c1.9,0.7,2.3,2.1,2.6,4c1.1,8.8,2.5,17.5,3.7,26.3
	c0.1,0.3,0.3,0.7,0.5,1.1c17.9-2.3,35.7-4.6,54-7c0.1-1.1,0.1-2.5,0.2-3.8c0.3-5.9,0.4-11.8,0.9-17.6c0.2-2.5,1.1-5,2-7.4
	c0.8-2.1,2.5-3.5,5-3.3c2.5,0.2,4,1.5,4.6,3.8c1,4.5,2.1,9,3,13.5c4.8,27,9.1,54.1,12.4,81.3c1.6,12.5,3.2,24.9,5.1,37.3
	c0.9,6.2,2.9,12.3,3.8,18.5c1.4,9.1-6.3,16.5-15.9,15.9c-6.3-0.4-11.8-4.7-13.2-11c-1.2-5.1-2.1-10.3-2.5-15.6
	c-0.8-10-1.1-19.9-1.6-29.9c-0.9-19.4-1.7-38.9-2.6-58.3C548.7,552.6,548.6,552.1,548.3,550.8z"/>
<path class="st0" d="M636.6,258.5c5.3-0.6,10-1.4,14.8-1.8c11-0.8,22-1.4,33-2c1.5-0.1,3,0.1,4.5,0.5c5.4,1.3,8.3,5.5,7.4,10.4
	c-0.8,4.5-5.3,7.6-10.6,7.4c-15.3-0.6-30.6-1.2-45.9-1.8c-0.1,0-0.2,0.1-0.8,0.3c0,7.1,1,14.2,1.6,21.7c1.9-0.2,3.2-0.2,4.5-0.4
	c17.2-2.2,34.6-3.4,52-3.4c2.5,0,5,0.3,7.4,0.9c5.5,1.4,8.8,5.9,8.4,11c-0.4,4.6-4.1,8.3-9.2,9c-1.3,0.2-2.7,0-4.1-0.2
	c-2.9-0.3-5.7-0.9-8.6-1c-9.2-0.3-18.5-0.5-27.7-0.6c-6.7-0.1-13.5,0-20.8,0c0.7,17.4,3.4,35.1,6.9,52.8c0.7,0,1.6,0.2,2.5,0.2
	c15.2-0.7,30.3-1.4,45.5-2.3c2.5-0.2,5-1.1,7.4-2c4.6-1.8,10.2-0.8,14.2,2.7c3.5,3,4.6,7.5,2.9,11.6c-1.2,2.9-3.3,5.1-6.5,6.1
	c-2.6,0.8-5.3,1.4-8.1,1.6c-12.5,1-25.1,0.6-37.6-0.3c-9.3-0.6-18.7-1.7-28-2.7c-2.3-0.2-4.6-1-6.9-1.3c-6.4-0.9-10.3-4.6-11.1-10.7
	c-0.4-3.2-0.7-6.4-0.8-9.6c-0.8-23.2-1.6-46.4-0.1-69.5c0.6-10.1,1.5-20.2,4.8-29.9c0.1-0.4,0.2-0.8,0.3-1.1
	c0.8-2.5,2.3-3.8,4.2-3.6c2.3,0.3,3.2,1.8,3.6,3.7C635.9,255.4,636.2,256.8,636.6,258.5z"/>
<path class="st0" d="M468.2,325.6c-9.1,0-18,0-27.4,0c-0.7,3.3-1.5,6.6-2.2,10c-1.5,7.9-3,15.9-4.4,23.9c-0.8,4.4-2.8,7.8-7.6,9.2
	c-6.8,2-13.6-2.8-13.4-9.7c0.2-4.3,1-8.6,1.9-12.9c1.2-5.8,2.7-11.5,3.9-17.3c0.3-1.5,0.4-3,0.6-4.5c0.1-0.5,0-1.1,0.1-1.5
	c5.6-14.6,8.4-29.9,13-44.7c3.3-10.4,6.1-21,11.1-30.9c0.5-1,0.6-2.2,0.8-3.3c0.6-3.2,2.5-5.4,5.8-6.5c3.3-1.1,6.1-0.1,8.3,2.1
	c2.1,2,4.2,4.2,5.5,6.7c3.5,6.4,7.3,12.7,9.8,19.4c4.9,13.2,8.9,26.6,13.4,39.9c0.7,2.2,2,4.2,2.8,6.3c0.6,1.5,1,3.2,1.3,4.8
	c0.3,2.1,0.2,4.3,0.7,6.4c3.5,14,6.4,28,11.3,41.7c2.3,6.5-1.1,12.5-7.7,14.5c-6.5,2-12.9-1.1-15.5-7.6c-3.8-9.6-6.4-19.6-8.6-29.6
	c-0.9-4.3-1.7-8.6-2.7-12.8C469,327.9,468.6,326.8,468.2,325.6z M443.3,314.2c7.6-1.8,14.6-3.4,21.6-5c-1.2-11.2-9-41.5-11.5-44.7
	C450,281,446.7,297.4,443.3,314.2z"/>
<path class="st0" d="M420.7,644.6c0.6-0.8,1.3-1.6,1.8-2.5c5.5-9.2,11.1-18.3,16.5-27.5c1-1.7,1.7-3.8,1.9-5.8
	c0.9-7.6,11.8-14.9,20-12.4c9.2,2.8,13.7,12.7,7.7,19.8c-9.4,11.1-16.4,23.7-24.9,35.3c-3.4,4.7-7.1,9.1-12,12.6
	c-8.9,6.3-18.7,5-25.1-3.6c-5.1-6.7-8.1-14.2-10.4-22.1c-3.1-10.5-4.7-21.3-5.7-32.2c-1.9-21.1-2.8-42.2-1.6-63.3
	c0.4-6.6,0.9-13.3,2.2-19.8c1.8-8.8,8.5-13.3,18-13.1c9.6,0.2,18.5,2.8,26.8,7c2.1,1.1,4.1,2.7,5.7,4.4c1.7,1.7,1.9,4,0.6,6.1
	c-1.3,2.1-3.4,2.6-5.7,2.3c-2.3-0.4-4.6-0.9-6.8-1.5c-4.4-1.2-8.7-2.6-13.1-3.5c-3-0.6-6.2-0.5-9.3-0.8c-1.8,3.8-2.1,7.4-1.9,11
	c0.4,12,0.8,24.1,1.8,36.1c0.9,11.6,2.3,23.2,3.9,34.8c1.3,9.5,3.1,19,5,28.4c0.7,3.6,2.4,7,3.6,10.5
	C420,644.6,420.4,644.6,420.7,644.6z"/>
<path class="st0" d="M781.6,360.5c0.3-5.9-0.8-11.5-3-16.8c-2.8-6.8-6-13.5-9.1-20.2c-4.6-10-9.4-19.9-13.8-30
	c-3.7-8.5-6-17.3-6.8-26.4c-0.6-6.6,0.1-13.1,2.7-19.3c1.3-3,3.1-6.1,5.4-8.5c4.3-4.3,9.6-6.8,16.3-5.5c3.9,0.8,7.9,1.1,11.8,1.8
	c4,0.7,7.6,2.3,10.7,4.9c1.5,1.2,2.6,2.7,2.3,4.7c-0.2,2-1.8,3-3.8,2.2c-5-2.2-10.2-1.9-15.4-1.6c-1.5,0.1-3,0.4-4.5,0.4
	c-3.5,0-5.3,1.8-6.2,4.6c-1.8,5.5-1.6,11.1-0.3,16.7c1.6,7.2,4.2,14.1,7.6,20.7c6,11.5,12.2,23,18.1,34.5c3.9,7.6,7.2,15.5,8.9,23.9
	c1.2,5.8,1.7,11.7,0.6,17.6c-0.8,4.4-3.2,7.8-7.1,10.4c-9.4,6.2-25.8,7-35.6,0.5c-4.6-3-8.6-6.5-11.9-10.6c-7.2-9-13-18.7-16.9-29.4
	c-1.8-4.9-2.8-9.9-2.2-15.1c0.6-5.3,3.5-9.1,9-10.9c3.4-1.1,6.6-0.7,9.2,1.8c2.5,2.4,3.2,5.4,1.6,8.5c-0.8,1.6-0.9,3.2-0.4,4.8
	c3.9,12.8,10.7,24.1,20.3,33.9C773.2,362.4,776.2,362.7,781.6,360.5z"/>
<path class="st0" d="M694.5,644.1c7.3-1.7,13.9-3.4,20.6-4.9c7.1-1.6,14.4-2.4,21.7-2.1c6.8,0.2,12.2,4.8,13,10.8
	c0.9,6.6-3,12.4-9.8,14.2c-1,0.3-2.2,0.4-3.3,0.5c-11.1,1.1-22.2,2.3-33.3,3.4c-7,0.7-14,1.4-21,2c-3.4,0.3-6.5-0.9-9.5-2.3
	c-2.1-1-3.8-2.6-3.6-4.8c0.4-4.2-1.1-8.1-1.7-12.1c-2.3-14.6-2.5-29.4-2.1-44.1c0.3-10.9,0.5-21.8,1.3-32.6
	c0.9-12.3,2.4-24.5,3.7-36.7c0.4-3.7,0.9-7.4,1.4-11.1c0.2-1.1,0.3-2.3,0.6-3.4c0.7-2.5,2.2-3.7,4.6-3.7c2.4,0,4.1,1.1,4.6,3.6
	c0.6,3,1,6.1,1.3,9.1c1.7,14.9,3.4,29.8,4.9,44.7c0.8,8.3,1.2,16.6,1.8,24.9c1.1,13.1,2.3,26.3,3.5,39.4
	C693.7,640.6,694.1,642.2,694.5,644.1z"/>
<path class="st0" d="M559.4,317.4c0.2-1.8,0.3-2.6,0.4-3.4c0.5-12.9,0.7-25.9,1.6-38.8c0.7-10.3,2.2-20.6,3.5-30.9
	c0.4-3.5,2.1-5.1,4.5-5c2.4,0.1,3.9,1.6,4.3,5.2c1.7,15.4,3.3,30.8,4.9,46.2c1.5,15.4,2.9,30.9,4.4,46.3c0.2,2,1.2,3.9,1.8,5.8
	c0.4,1.5,1.2,3,1.1,4.4c-0.2,4.9,0,10-2.9,14.5c-0.7,1.1-0.2,2.9,0.1,4.4c1,4.9-1,9.5-5.4,11.9c-5.3,2.9-11.9,1.5-15.3-3.3
	c-1.4-1.9-2.5-4-3.5-6.1c-10.4-24.4-21.1-48.7-31.1-73.2c-4-9.8-6.7-20-9.9-30.1c-0.6-2-0.9-4-1.2-6c-0.5-3.4,0.7-5.5,3.3-6.2
	c2.4-0.7,4.5,0.3,6.2,3.3c2.3,4,4.5,8,6.6,12c8.1,15,16.1,30,24.1,45.1C557.6,314.5,558.3,315.6,559.4,317.4z"/>
<path class="st0" d="M610,585.4c0.3-12.1,0-22.3,1-32.3c0.7-8,2.8-15.9,4.5-23.8c0.5-2.6,2-3.6,4.1-3.6c2.1,0,3.5,1.1,4.2,3.6
	c3,10.5,5.4,21.2,6.7,32c2.1,16.9,4.2,33.8,6.4,50.8c0.8,6.7,1.7,13.5,2.6,20.2c0.1,0.8,0,1.6,0.4,2.3c3.7,6.8,2.8,14.3,3,21.5
	c0.1,6.4-5.7,11.5-12.7,12c-6.7,0.5-13.2-3.9-14.4-10.2c-0.8-4.4-1.1-8.9-1.4-13.4C612.7,624,611.3,603.7,610,585.4z"/>
<path class="st0" d="M617.8,70c4.1,2.4,5.1,5.5,6.6,8.4c1.4,2.7,2.5,5.6,3.8,8.5c2.3-0.7,4.5-1.3,6.7-2.1c2.5-0.9,4.3,0.2,6,1.5
	c2.1-0.4,4.1-0.9,6.1-1.1c1.8-0.2,3.7,0,5.7,0.6c-0.7,0.5-1.4,1-2.2,1.3c-2.6,1.2-5.2,2.3-7.8,3.5c-5.1,2.2-7.9,6.2-9.9,10.8
	c-0.2,0.5-0.4,1-0.5,1.5c-1.6,6.5-5.8,10.5-13,11.9c-2.1,0.4-4.2,1.3-6.1,2.4c-1.7,1-3.1,2.4-4.4,3.8c-1,1-1.5,2.4-2.4,3.6
	c-2.3,2.9-3.2,2.9-5.9-0.1c-1.9,1.6-3.8,3.3-5.8,4.9c-1.9,1.5-4,2.9-6.1,4.3c-0.3-0.2-0.6-0.4-0.9-0.6c0.4-0.8,0.5-1.8,1.1-2.4
	c3.2-3.3,6.4-6.7,9.9-9.7c2.3-2,4.1-3.9,5.3-6.7c1.7-4,4-7.8,6.2-12c-8.2-4.6-16.9-9.2-18.8-19.3c-0.9-4.7-3.2-9.3-0.8-14.8
	c8.1,6.6,15.9,13,23.9,19.6c0.2-0.9,0.5-1.3,0.4-1.5C611.8,80.2,616.4,75.7,617.8,70z"/>
<path class="st0" d="M666.8,194.6c7.6-1.3,14.2-3.9,21.7-2.8c1.2-4.9,2.4-9.9,3.5-14.8c1.7-7.5,3.4-15,5.1-22.5
	c0.2-1,0.4-2.1,0.9-2.9c0.3-0.6,1.2-1.1,1.8-1.1c0.4-0.1,1.3,0.6,1.5,1.1c1.1,4.2,5.1,7,5.9,11.5c0.8,4.3,2.5,8.4,3.8,12.6
	c0.4,1.5,1.2,2.3,2.8,2.9c2.6,1.1,3.4,3.2,1.7,5.3c-1.2,1.6-0.9,2.8-0.3,4.2c1.3,2.8,2.6,5.6,3.8,8.5c1,2.4,0.2,4.6-1.9,5.7
	c-2.2,1.1-4.9,0.3-6.4-1.9c-0.6-0.9-1-1.8-1.3-2.8c-0.8-2.4-1.6-4.9-2.4-7.3c-0.4-1.2-0.7-2.4-1.2-3.7c-2.9,0-5.6,0-8.8,0
	c-0.4,3.2-0.8,6.4-1.1,9.5c-0.5,4-3,5.2-6.8,3.2c-0.6-0.3-1.5-0.7-2.2-0.6c-6.1,0.8-12.3,1.6-18.4,2.6c-1,0.2-1.9,0.9-2.8,1.4
	c-3,1.8-5.7,1-6.8-2.1c-0.4-1.2-0.8-2.5-0.8-3.7c0.2-14.6,0.4-29.2,0.6-43.8c0-1.4-0.3-3.5,1.9-3.7c2.6-0.2,2.5,2.1,2.7,3.6
	c0.8,4.8,1.5,9.6,1.8,14.5c0.5,7.5,0.8,15.1,1.2,22.6C666.4,191.3,666.6,192.8,666.8,194.6z M701,164.5c-0.2,0-0.5,0-0.7,0
	c-0.7,5.1-1.5,10.2-2.3,15.9c2.4-0.5,4.2-0.9,6.1-1.3C703,173.9,702,169.2,701,164.5z"/>
<path class="st0" d="M598.9,197c-0.7,0.7-1,1.2-1.6,1.6c-3.2,2.5-7,1.3-7.7-2.5c-0.5-2.7-0.7-5.3-0.8-8c-0.4-8.4-0.6-16.9-0.9-25.4
	c-0.1-1.4-0.4-2.7-0.6-4.1c-0.1-0.7-0.1-1.5,0.1-2.2c0.3-1.5,0.9-2.9,1.2-4.4c0.3-1.3,0.2-2.8,2.1-2.8c1.6,0,1.8,1.3,2,2.5
	c0,0.5,0.2,1,0.4,2c1.5-0.4,2.9-0.7,4.3-1.1c4.5-1.3,9-2.3,13.8-2.2c2,0.1,4,0.3,5.1,2c0.6,0.9,1,2.2,0.7,3.2
	c-0.3,1.4-1.6,2-3.2,1.9c-6.3-0.5-12.2,1.7-18.3,2.4c-1.8,0.2-2.3,1.2-1.5,3.2c3.4-0.4,6.8-0.8,10.3-1.2c3.3-0.4,6.6-0.8,9.9-1.1
	c1.1-0.1,2.2-0.1,3.3,0.1c1.8,0.3,3,1.2,3.3,3s-0.4,3.2-2.1,3.7c-2.2,0.7-4.5,1.3-6.8,1.5c-4.4,0.3-8.8,0.2-13.2,0.2
	c-1.2,0-2.4,0-4.2,0c0.2,1.7,0.3,3,0.5,4.3c0.7,4.2,0.5,8.6,2.9,12.6c0.8,1.3,0.5,3.2,0.8,5.3c5.1-0.7,9.9-1.4,14.8-2
	c4.4-0.5,8.8-0.8,13.2-1.1c1.5-0.1,3,0.2,4.5,0.5c1.8,0.4,2.8,1.7,2.9,3.4c0.1,1.7-0.8,3-2.4,3.7c-0.7,0.3-1.6,0.7-2.3,0.7
	C619.3,196.8,609.2,198.7,598.9,197z"/>
<path class="st0" d="M495.1,164.5c0.9,7.9,1.8,15.7,2.7,23.6c0.2,2.2,0.4,4.3,0.4,6.5c0,2.4-1.7,4.1-3.9,4.2
	c-2.1,0.2-4.1-1.2-4.4-3.7c-0.6-4.8-1.1-9.7-1.2-14.5c-0.2-8.3,0-16.6,0.1-25c0-0.4,0-0.8,0.1-1.1c0.2-1.2-0.1-2.8,1.8-3
	c1.8-0.2,2.2,1.1,2.6,2.4c0.2,0.6,0.5,1.2,1,1.6c6,4.7,10.3,10.6,14.8,16.4c0.3,0.4,0.7,0.7,1.6,1.6c-0.1-9.2-2.9-17.4-1.9-25.9
	c2.3-0.1,2.5,1.2,2.8,2.2c1.9,5.9,3.8,11.8,5.5,17.7c2.4,8.3,4.6,16.6,6.9,24.9c0.3,1,0.6,2,0.7,3c0.1,1.9-0.8,3.3-2.6,4
	c-1.9,0.8-3.9,0.6-5.3-0.9c-1.1-1.1-1.9-2.5-2.7-3.8c-5.3-8.9-10.4-17.7-15.7-26.6c-0.8-1.3-1.6-2.6-2.4-3.9
	C495.7,164.3,495.4,164.4,495.1,164.5z"/>
<path class="st0" d="M530.6,445.5c0.6,4.6,1.2,8.6,1.8,13.1c5.9-0.5,11.4-1,16.8-1.6c1.5-0.1,3-0.3,4.5-0.5c2.2-0.2,4.3-0.3,6.2-1.8
	c1.2-1,3.1-1,4.1,0.1c0.8,0.8,1.2,2.3,1.1,3.4c-0.3,2.7-2.5,4.4-5.2,4.8c-9.1,1.1-18.3,2.5-27.6,1.1c-2.9-0.5-5.2-1.2-5.5-4.6
	c-0.4-3.6-1.2-7.1-1.9-10.6c-0.3-1.6-0.8-3.2-1.1-4.8c-0.1-0.6-0.3-1.3-0.1-1.9c1.2-3.2,0.2-6.2-0.4-9.3c-0.3-1.9,0.5-4.1,1.2-6.1
	c0.1-0.4,2.1-0.8,2.4-0.5c1.8,1.9,3.7,0.8,5.7,0.5c5.2-0.8,10.4-1.3,15.5-1.9c0.7-0.1,1.4,0,2.1,0c2.5,0.2,3.9,1.3,4,3
	c0,1.8-1.4,2.9-3.9,3.1c-3.9,0.3-7.7,0.4-11.5,0.7c-3,0.3-5.9,0.7-9.2,1.1c0.2,2.3,0.4,4.2,0.5,6c7.9-0.3,15.5-0.7,23-1
	c0.6,0,1.1-0.1,1.6-0.1c2.5,0,4,0.9,4.3,2.7c0.3,1.7-0.8,3.4-3,4c-2,0.6-4,0.9-6.1,0.9c-4.7,0.1-9.4,0-14.1,0
	C534.3,445.5,532.8,445.5,530.6,445.5z"/>
<path class="st0" d="M770.2,434.7c0.2,1.1,0.3,1.9,0.4,2.9c2.4-0.3,4.6-0.5,6.8-0.7c5.4-0.6,10.7,0.1,15.8,2.1
	c1.1,0.5,2.2,1,3.2,1.8c1.2,1,1.6,2.4,0.7,3.8c-0.9,1.3-2.1,2-3.8,1.6c-0.9-0.2-1.8-0.7-2.7-1c-5.9-2.3-12.1-2-18.5-1.5
	c-0.2,5.1,1.4,9.6,1.9,14.5c1.3-0.1,2.5-0.1,3.6-0.3c5.3-0.7,10.6-1.5,15.9-2.1c4-0.5,7.9-0.9,10.8-4.1c1.5-1.6,3.3-1.5,4.8-0.4
	c1.5,1.1,1.8,3,0.5,4.8c-2.6,3.4-6.2,5.6-10.5,6.2c-8,1-16.1,1.7-24.2,2.5c-1,0.1-1.9,0-2.9-0.1c-3-0.4-3.9-0.9-4.3-3.7
	c-1.1-9-2.1-18.1-3-27.1c-0.1-1.2,0.1-2.6,0.4-3.8s1.3-1.7,2.8-1.6c3.3,0.2,6.5,0.1,9.8,0.1c2.8-0.1,5.5-0.4,8.2-0.5
	c3.3-0.1,4.8,0.8,4.9,2.8c0.1,1.9-1.4,3.2-4.6,3.4c-4.1,0.3-8.3,0.3-12.4,0.4C772.6,434.7,771.5,434.7,770.2,434.7z"/>
<path class="st0" d="M426.1,428.9c3.8-0.6,7.6-1.1,11.4-1.6c1.2-0.2,2.5-0.3,3.7-0.1c1.5,0.2,2.7,1.2,2.5,2.6
	c-0.2,0.9-1.1,2.1-2,2.5c-1,0.5-2.4,0.4-3.6,0.5c-3.7,0.4-7.4,0.8-11.4,1.3c0.2,1.6,0.3,2.9,0.4,4.3c4.8-0.4,9.1-0.8,13.5-1.1
	c2.5-0.1,5-0.1,7.4,0.2c1.7,0.2,3.5,0.8,5,1.6c1.9,1,2.5,3,1.7,4.6c-0.7,1.5-2.5,2.4-4.5,1.9c-7.2-2-14.5-0.2-22.3-0.6
	c0.6,5.1,1.1,9.7,1.6,14.5c6.5-0.3,12.7-0.5,18.8-0.8c1.9-0.1,3.9-0.2,5.8-0.4c1.5-0.1,2.8,0.1,3.3,1.6c0.5,1.5,0,2.9-1.5,3.6
	c-1.1,0.5-2.3,0.9-3.5,1c-6.1,0.2-12.1,0.2-18.2,0.3c-2.3,0-4.7-0.3-7-0.2c-3.8,0.1-4.9-0.6-5.2-4.3c-0.4-6.5-0.7-13-1.1-19.6
	c-0.2-2.9-0.6-5.8-0.5-8.8c0-1.9,0.6-3.8,1.3-5.5c0.5-1.4,2.3-1.3,3.2,0c0.3,0.4,0.3,1,0.6,1.4C425.4,428.2,425.7,428.5,426.1,428.9
	z"/>
<path class="st0" d="M686.3,436.1c-2.3,3.6-3.8,7.2-8.5,8.1c0.3,2.5,0.7,4.6,0.9,6.7c0.2,2.2,0.6,4.3,0.6,6.5c0,2.7-1.3,3.9-3.5,3.8
	c-2.1-0.1-3.1-1.2-3.3-3.7c-0.2-4.3-0.3-8.7-0.4-13.1c-0.2-6.8-0.5-13.5-0.6-20.3c0-0.6,0.7-1.3,1.3-2.4c1.1,1.6,1.8,2.6,2.4,3.5
	c1.7-2,3.1-4.3,5.1-5.9c3.6-3.1,7.3-1.8,7.9,2.8c0.4,2.9,0.1,5.9,0.1,9c10.6,4.3,16.2,12.9,20.7,22.3c0.9,1.9,1.9,3.7,2.4,5.7
	c0.6,3-0.9,5.1-3.6,5.6c-2.6,0.5-4.8-1-5.3-4.1c-1.5-8.9-7.2-15.7-13.2-22.2C688.5,437.6,687.5,437.1,686.3,436.1z M677.8,438.1
	c5.7-6.2,8.1-13.6,5.7-17.4C678,423.4,675.8,429.7,677.8,438.1z"/>
<path class="st0" d="M483.8,182.9c-0.1,2-0.2,4.7-0.5,7.4c-0.3,2-0.6,4.1-1.5,5.9c-1.8,4.1-6.3,5-9.6,1.8c-1.6-1.5-2.9-3.5-3.6-5.5
	c-1.6-4.9-3.1-9.8-3.9-14.8c-0.8-5.3-0.8-10.7-1.1-16c-0.1-1.1-0.3-2.2-0.5-3.3c-0.1-0.6-0.4-1.2-0.3-1.9c0.1-2.4-0.1-5.2,2.8-6.3
	c2.8-1.1,5.3,0.4,6.9,2.3c2.7,3.2,5.3,6.5,7.4,10.1C483.5,168.6,484,175.4,483.8,182.9z M475.4,187.6c2.6-10.6,1.8-20.7-5.8-29.5
	C469.8,168.2,471.2,178.1,475.4,187.6z"/>
<path class="st0" d="M487.2,446.3c-0.3-6.8-0.7-13.1-0.8-19.3c0-1.5,0.2-3.1,0.7-4.5c0.2-0.7,1.2-1.2,1.8-1.8c0.5,0.7,1.3,1.3,1.3,2
	c0,8.9,2.2,17.5,4.3,26.1c0.8,3.2,2.2,6.3,3.5,9.4c0.7,1.7,0.6,3.2-0.7,4.6c-2.4,2.8-5.4,2.5-7.1-0.7c-0.3-0.6-0.4-1.3-0.9-1.7
	c-5.7-6.2-10-13.1-13.9-20.3c-0.1-0.2-0.4-0.3-1-0.7c-0.2,1-0.4,1.8-0.4,2.5c-0.1,5.5-0.1,11-0.2,16.5c0,0.9,0.1,1.8-0.1,2.7
	c-0.3,1.5-1.4,2.5-3.2,2.4c-1.8,0-2.9-1-3-2.6c-0.1-2.3-0.1-4.6,0.1-6.9c0.4-5.7,1-11.5,1.5-17.2c0.2-2.5,0.4-5.1,0.8-7.6
	c0.1-1,0.5-2,1.2-2.8c0.4-0.5,1.5-0.9,2.1-0.8c0.6,0.1,1.5,1.2,1.3,1.6c-0.7,2.5,1.3,3.7,2.5,5.4c3,4,5.9,8.1,8.8,12.1
	C486,445.2,486.5,445.6,487.2,446.3z"/>
<path class="st0" d="M535.7,146.7c0.9,0.9,1.9,1.6,2.5,2.5c5.4,7.9,10.6,15.9,13.6,24.9c2.1,6.4,2.4,12.8,1.2,19.4
	c-0.5,2.8-1.5,5.4-4.7,6.2c-3.6,0.9-6.5-0.5-8.7-3.1c-2.8-3.4-4.7-7.3-5.5-11.5c-1.8-9.3-2.3-18.5-0.4-27.9c0.4-2,0.1-4.1,0.1-6.1
	C533.9,149.6,533.3,148,535.7,146.7z M538.7,157.2c-0.6,0.9-1,1.2-0.9,1.5c0.4,9.1,1.3,18.1,4,26.9c0.6,2,1.5,4.1,4,5.8
	C548.2,179,543.9,168.3,538.7,157.2z"/>
<path class="st0" d="M741.5,197.3c0.4-2.1-0.7-3.8-1.7-5.4c-2.5-4-5.2-7.8-7.8-11.8c-1.9-2.8-3.9-5.6-5.6-8.5
	c-2.4-4-2.8-8.3-1.5-12.7c1.8-5.9,6.5-8,12.3-5.1c2.3,1.2,4.2,3.2,6.1,5c0.3,0.3,0.2,1.4-0.2,1.9c-0.1,0.2-1.3,0.3-1.8,0
	c-1.4-0.8-2.6-1.9-3.9-2.8c-3.1-1.9-5.4-0.8-5.8,2.5c-0.3,2.8,0,5.6,1.5,8.2c1.3,2.3,2.6,4.5,4,6.7c2.7,4.2,5.6,8.2,8.1,12.5
	c1.4,2.4,2.5,5.1,3.2,7.9c1.3,5.2-1.3,7.8-7.1,7.4c-4.1-0.3-7.4-2.2-10.2-4.7c-3.7-3.3-6.5-7.3-8.2-11.8c-0.3-0.8-0.6-1.7-0.7-2.6
	c-0.2-1.4,0.2-2.6,1.7-3.1c1.7-0.6,2.8,0.1,3.7,1.5c2.4,3.7,4.7,7.5,7.3,11.1C736.8,196.2,738,196.6,741.5,197.3z"/>
<path class="st0" d="M582.9,185c0.2,0.9,0.8,1.8,0.6,2.6c-0.9,2.9-1.8,6-3.3,8.6c-2.4,4.1-7.9,5-12.1,2c-4.2-2.9-7.1-6.8-9-11.2
	c-3.9-8.7-5.3-17.7-4.1-27c0.2-1.6,0.5-3.3,1.1-4.9c2.3-6.7,9.8-8.7,15.4-4c3.9,3.3,4.8,7.9,5.4,12.5c0,0.3-0.6,0.7-1.3,1.5
	c-0.7-1.1-1.4-1.8-1.7-2.7c-0.9-2.3-1.6-4.6-2.5-6.9c-0.9-2.1-2.8-3.1-4.8-2.9c-2.3,0.2-3.5,1.7-3.7,3.6c-0.4,4.1-0.8,8.2-0.4,12.2
	c0.7,7.4,3.4,14.2,7.7,20.4c3.4,4.9,5.3,4.8,9-0.1c0.9-1.1,1.7-2.3,2.6-3.4C581.6,185.1,582,185.2,582.9,185z"/>
<path class="st0" d="M456.8,164.1c-2.7-1.2-3.3-3.5-4.6-5.2c-1.6-2.1-3-4.4-5-6.1c-3.2-2.7-5.5-1.9-6.1,2.2
	c-1.8,11.7,0.5,22.7,6.3,33.1c0.9,1.6,2.5,3,4.1,4.9c0.6-1.2,1.1-1.9,1.4-2.7c0.5-1.7,0.9-3.5,1.4-5.2c0.3-1.2,0.5-2.9,2.4-2.5
	c1.8,0.4,1.3,2,1.2,3.2c-0.1,2.7-0.3,5.4-0.5,8.1c0,0.5,0,1-0.1,1.5c-0.6,3.4-3.2,5.2-6.9,4.3c-1.8-0.4-3.8-1.2-5-2.4
	c-2.2-2.1-4.3-4.4-5.7-7c-5.7-10.8-7.3-22.2-5.1-34c0.4-2,1.1-4,2.1-5.8c2.1-3.6,5.7-4.6,9.5-2.5c2.2,1.2,4.3,2.9,5.8,4.8
	c2.1,2.8,3.6,6,5.3,9.1C457.5,162.5,457,163.3,456.8,164.1z"/>
<path class="st0" d="M732.7,422.2c1.5,0.2,2.5,0.2,3.3,0.5c8.2,2.6,14.4,7.5,17.9,14.8c1.8,3.7,1.2,7.5-0.7,11.1
	c-3.3,6.3-8.3,11.1-14.1,15.3c-2.5,1.8-5.4,0.5-5.9-2.7c-0.4-2.9-0.6-5.9-0.7-8.8c-0.2-9.1-0.2-18.2-0.3-27.2
	C732.3,424.3,732.5,423.5,732.7,422.2z M740.1,455c4.5-1.8,6.1-5.2,8-8.2c1.8-2.8,1.6-5.7-0.2-8.4c-2.7-3.9-6.5-6.8-10.7-10.7
	C738.3,437.3,739.2,445.9,740.1,455z"/>
<path class="st0" d="M637.8,459.8c-0.6-1.3-1.1-2.5-1.7-3.8c-2.3-4.9-4.7-9.8-6.9-14.8c-1.8-4.2-2.5-8.6-1.9-13.2
	c0.5-3.9,2.9-6.3,6.6-7c4.1-0.8,8.8,1,10.7,4.1c0.1,0.1-0.2,0.5-0.4,1c-0.8-0.3-1.6-0.5-2.4-0.8c-1.1-0.5-2.2-1.2-3.3-1.5
	c-3.6-0.8-6.2,0.9-6,4.3c0.2,3,0.7,6.1,1.8,9c1.8,4.9,4.2,9.7,6.3,14.6c1,2.4,2.2,4.7,2.7,7.2c0.9,4-0.9,5.7-5.3,5.7
	c-3,0-5.3-1.2-7.3-3.1c-6.9-6.4-10.5-14-9.2-23.2c0.1-0.6,0.1-1.4,0.5-1.8c0.6-0.6,1.5-1.4,2.2-1.3c0.7,0.1,1.7,1,1.8,1.7
	c0.2,1.9,0.1,3.8,0.1,5.7c0.1,6.9,4.2,12,9.2,16.6c0.4,0.3,0.9,0.6,1.4,0.8C636.9,460.2,637.1,460,637.8,459.8z"/>
<path class="st0" d="M647.1,425.3c2.8-0.5,3.6-0.2,4.5,2.1c0.8,2.3,1.3,4.7,1.8,7.1c1.1,4.6,2.1,9.3,3.2,13.9c0.3,1.4,1,2.8,1.6,4.2
	c0.3,0,0.7-0.1,1-0.1c0.3-3.3,0.6-6.7,0.8-10c0.2-3.6,0.1-7.2,0.4-10.7c0.2-2.9,1.3-5.5,4.8-6.6c0.3,0.5,0.8,1,0.8,1.4
	c-0.3,10.5-0.6,21-1,31.4c0,1.3-0.4,2.6-0.8,3.7c-1.4,3.6-5,4.3-7.7,1.5c-1.5-1.6-2.6-3.6-3.4-5.6c-2.8-6.6-3.8-13.6-4.4-20.6
	c-0.2-1.9-0.1-3.8-0.3-5.8C648.1,429.2,647.6,427.4,647.1,425.3z"/>
<path class="st0" d="M575.9,456.8c5.2-1.1,9.9-2.1,14.6-3.1c1.3-0.3,2.7-0.5,4.1-0.7c2.9-0.3,4.7,0.7,5.1,2.7
	c0.3,1.8-0.8,3.1-3.7,3.8c-4.5,1.1-9.1,1.9-13.7,2.9c-2.4,0.5-4.7,1.2-7,2c-2.1,0.7-3.9,0.2-4.8-1.7c-0.6-1.3-0.9-2.7-0.9-4.1
	c-0.3-9.1-0.5-18.1-0.7-27.2c0-1.6,0.2-3.3,0.6-4.9c0.1-0.6,0.9-1.1,1.3-1.7c0.6,0.6,1.6,1.1,1.7,1.8c0.7,4.8,1.3,9.6,1.8,14.5
	C574.8,446.1,575.3,451.2,575.9,456.8z"/>
<path class="st0" d="M510.7,103.1c0.6-2.8,2.2-2.3,3.5-2.4c6.7-0.5,13.5-0.9,20.2-1.2c9.6-0.4,19.3-0.7,28.9-1
	c1.4-0.1,2.8-0.1,4.1,0.2c0.8,0.2,1.9,1.2,2,1.9c0.2,1.3-1.1,1.5-2.3,1.5c-7,0-14.1,0-21.1,0.2c-10.1,0.2-20.1,0.6-30.2,0.9
	C514.3,103.1,512.7,103.1,510.7,103.1z"/>
<path class="st0" d="M662.1,100.6c-1.5,1.1-2.2,2-3.2,2.2c-1.4,0.3-2.3-0.7-2.3-2c-0.1-1.3,0.8-2.3,2.1-2.2
	C659.7,98.8,660.5,99.6,662.1,100.6z"/>
<path class="st0" d="M650.8,100.6c-1.3,1-2,2-2.7,2c-0.8,0-2-0.8-2.2-1.6c-0.4-1.2,0.6-2.3,1.9-2.2
	C648.6,98.9,649.4,99.8,650.8,100.6z"/>
<path class="st0" d="M671.4,100.9c-1.4,0.7-2.2,1.5-2.8,1.3c-0.7-0.2-1.3-1.1-1.5-1.8c-0.1-0.3,1.1-1.3,1.7-1.2
	C669.4,99.3,670,100,671.4,100.9z"/>
<path class="st1" d="M443.3,379.6c3.4-16.8,6.7-33.2,10.1-49.7c2.5,3.2,10.3,33.5,11.5,44.7C457.9,376.3,450.9,377.9,443.3,379.6z"
	/>
<path class="st1" d="M724.3,184c1,4.7,2,9.5,3.1,14.6c-2,0.4-3.7,0.8-6.1,1.3c0.8-5.7,1.6-10.8,2.3-15.9
	C723.8,184,724.1,184,724.3,184z"/>
<path class="st1" d="M677.8,438.1c-2-8.4,0.2-14.7,5.7-17.4C685.9,424.5,683.5,431.8,677.8,438.1z"/>
<path class="st1" d="M475.4,199.9c-4.3-9.4-5.7-19.4-5.8-29.5C477.2,179.2,478,189.3,475.4,199.9z"/>
<path class="st1" d="M538.7,165.7c5.3,11.1,9.6,21.8,7,34.2c-2.5-1.7-3.3-3.8-4-5.8c-2.7-8.8-3.7-17.8-4-26.9
	C537.7,166.9,538.1,166.6,538.7,165.7z"/>
<path class="st1" d="M740.1,464.8c-0.9-9.1-1.8-17.7-2.8-27.2c4.1,3.9,8,6.8,10.7,10.7c1.9,2.7,2.1,5.5,0.2,8.4
	C746.2,459.6,744.6,462.9,740.1,464.8z"/>
</svg>
